<?xml version="1.0" encoding="utf-8"?>
<!-- Generator: Adobe Illustrator 16.0.3, SVG Export Plug-In . SVG Version: 6.00 Build 0)  -->
<!DOCTYPE svg PUBLIC "-//W3C//DTD SVG 1.1//EN" "http://www.w3.org/Graphics/SVG/1.1/DTD/svg11.dtd">
<svg version="1.1" id="Capa_1" xmlns="http://www.w3.org/2000/svg" xmlns:xlink="http://www.w3.org/1999/xlink" x="0px" y="0px"
	 width="3628.35px" height="2040.94px" viewBox="0 0 3628.35 2040.94" enable-background="new 0 0 3628.35 2040.94"
	 xml:space="preserve">
<g>
	<g>
		<path fill-rule="evenodd" clip-rule="evenodd" fill="#FEFEFE" d="M1190.963,858.94c512.368,0,1024.735,0.007,1537.103-0.116
			c4.153-0.001,4.814,0.955,4.809,4.911c-0.133,105.639-0.129,211.279-0.008,316.918c0.005,3.616-0.754,4.342-4.351,4.341
			c-608.843-0.099-1217.686-0.099-1826.528,0c-3.445,0.001-4.111-0.703-4.087-4.106c0.183-25.324,0.099-50.651,0.099-75.979
			c0.538-0.391,1.135-0.642,1.788-0.76c5.492,0.104,10.987,0.273,16.481,0.124c5.296-0.144,5.961-0.781,6.077-6.193
			c0.141-6.66,0.036-13.325,0.043-19.988c0.009-7.829-0.041-15.658,0.017-23.487c0.061-8.272,0.995-9.247,9.167-9.274
			c16.825-0.058,33.649-0.018,50.473-0.019c26.986-0.002,53.972-0.007,80.958,0.008c2.66,0.001,5.334-0.173,7.965,0.367
			c3.91,1.197,3.338,4.534,3.378,7.435c0.213,15.17,1.344,30.252,5.07,44.999c5.3,20.978,13.905,40.29,29.852,55.531
			c13.315,12.725,29.251,20.717,47.115,24.849c21.527,4.979,43.324,2.966,65.073,2.266c11.02-0.355,21.833-1.999,32.629-4.094
			c4.097-0.795,7.681-3.35,12.003-3.203c3.667-0.358,7.336-0.192,11-0.192c411.083-0.009,822.165-0.006,1233.249-0.022
			c12.902-0.001,11.785,1.24,11.814-11.855c0.045-20.163,0.01-40.325,0.014-60.487c0-1.999-0.072-4.004,0.12-5.996
			c0.491-5.07,2.2-6.687,7.39-6.666c14.496,0.056,28.993,0.014,43.49,0.025c9.973,0.008,9.975-0.01,9.989-9.904
			c0.006-4.165-0.022-8.33,0.009-12.497c0.07-9.332,1.282-10.511,10.811-10.585c1.332-0.012,2.666-0.006,3.998-0.006
			c41.159,0.004,82.317-0.006,123.476,0.006c7.654,0.002,7.695-0.004,7.681-7.852c-0.021-11.566,0.747-10.872-10.848-10.878
			c-40.158-0.021-80.316-0.008-120.475-0.009c-1.833,0-3.666,0.025-5.499-0.021c-7.479-0.189-8.987-1.686-9.124-9.244
			c-0.096-5.331,0.016-10.665-0.04-15.996c-0.069-6.567-0.312-6.779-6.723-6.756c-13.997,0.051-27.995,0.03-41.991,0.015
			c-10.895-0.013-12.254-1.396-12.259-12.516c-0.019-36.992-0.006-73.986-0.007-110.978c0-1.666-0.104-3.339-0.003-4.998
			c0.249-4.128-1.745-5.723-5.71-5.493c-2.157,0.125-4.331,0.01-6.497,0.01c-411.249,0-822.499,0-1233.748-0.01
			c-3.506-0.001-7.021,0.202-10.513-0.227c-20.491-4.978-41.405-6.847-62.369-8.341c-3.868-1.552-8.174,0.283-12.01-1.538
			C1190.766,860.051,1190.65,859.544,1190.963,858.94z"/>
		<path fill-rule="evenodd" clip-rule="evenodd" fill="#FEFEFE" d="M898,948.928c0-28.663,0.076-57.327-0.1-85.988
			c-0.021-3.427,0.676-4.1,4.1-4.096c93.322,0.12,186.643,0.096,279.964,0.096c0.321,0.574,0.222,1.064-0.294,1.471
			c-2.855,1.563-6.196,0.323-9.106,1.594c-12.641,1.444-24.928,4.268-36.537,9.591c-22.837,10.471-38.75,27.749-48.853,50.488
			c-7.236,16.286-10.68,33.481-11.882,51.25c-0.529,7.813-0.759,15.604-0.912,23.419c-0.105,5.388-1.19,6.497-6.521,6.505
			c-46.438,0.063-92.875,0.056-139.312,0.009c-1.819-0.002-3.705,0.051-5.08-1.524c-1.297-2.295-1.007-4.826-1.015-7.289
			c-0.036-12.093,0.013-24.187-0.027-36.279c-0.024-7.282-0.389-7.543-7.494-7.709c-5.118-0.12-10.267,0.56-15.355-0.522
			C899.004,949.678,898.48,949.338,898,948.928z"/>
		<path fill-rule="evenodd" clip-rule="evenodd" fill="#DADADA" d="M898,948.928c0.424,0.051,0.849,0.103,1.272,0.153
			c1.59,2.002,1.337,4.397,1.339,6.696c0.033,47.347,0.036,94.696-0.007,142.044c-0.002,2.442,0.378,5.044-1.587,7.08
			c-0.339,0.002-0.678,0.005-1.018,0.007C898,1052.916,898,1000.922,898,948.928z"/>
		<path fill-rule="evenodd" clip-rule="evenodd" fill="#EDF8FE" d="M1181.94,859.805c0.012-0.288,0.02-0.577,0.024-0.865
			c3,0,6,0,8.999,0c0.005,0.286,0.013,0.573,0.024,0.859C1187.973,861.998,1184.957,861.991,1181.94,859.805z"/>
		<path fill-rule="evenodd" clip-rule="evenodd" d="M1265.02,869.071c2.33-0.063,4.66-0.183,6.99-0.183
			c415.269-0.008,830.537,0.002,1245.805-0.124c5.081-0.002,6.611,1.02,6.579,6.375c-0.248,40.658-0.06,81.319-0.244,121.979
			c-0.021,4.518,1.264,5.515,5.609,5.446c16.993-0.269,33.994,0.009,50.988-0.21c3.465-0.045,4.222,0.967,4.134,4.182
			c-0.211,7.659,0.188,15.341-0.167,22.989c-0.202,4.349,1.387,5.162,5.4,5.15c45.325-0.137,90.652-0.024,135.979-0.195
			c4.01-0.015,5.217,0.956,4.932,4.896c-0.336,4.641-0.29,9.338-0.008,13.987c0.205,3.396-0.96,4.066-4.238,4.057
			c-45.493-0.128-90.986-0.026-136.479-0.192c-4.331-0.017-5.833,0.915-5.596,5.459c0.397,7.645-0.02,15.328,0.172,22.989
			c0.076,3.074-0.86,3.923-3.958,3.896c-17.329-0.158-34.662,0.042-51.99-0.173c-3.78-0.047-4.776,0.982-4.753,4.726
			c0.158,25.328-0.008,50.659,0.176,75.987c0.029,3.994-1.083,4.896-5.004,4.895c-416.435-0.097-832.869-0.091-1249.304-0.098
			c-1.665,0-3.329-0.108-4.993-0.166c-0.418-9.456-1.866-18.946,0.961-28.295c1.617-1.065,3.462-1.102,5.296-1.15
			c2.499-0.066,4.999-0.031,7.498-0.031c405.899-0.001,811.798,0.001,1217.697-0.012c12.521-0.001,11.631,1.088,11.647-11.573
			c0.029-22.161,0.021-44.322-0.009-66.483c-0.003-2.472,0.354-5.017-0.938-7.32c-1.476-1.823-3.544-1.558-5.526-1.561
			c-8.316-0.016-16.634,0.038-24.95-0.022c-6.195-0.045-7.331-0.912-9.106-6.988c-1.118-3.83-2.399-7.623-3.147-11.551
			c-0.927-4.866-0.053-6.093,4.932-6.174c10.811-0.177,21.624-0.026,32.437-0.079c2.098-0.01,4.426,0.541,5.815-1.807
			c0.647-2.133,0.496-4.313,0.497-6.473c0.006-39.321,0.006-78.642,0.003-117.963c-0.001-1.333-0.065-2.667-0.055-3.997
			c0.023-3.079-1.404-4.596-4.524-4.635c-2.498-0.031-4.997-0.054-7.496-0.054c-406.206-0.002-812.413-0.001-1218.62-0.028
			c-3.794,0-7.671,0.595-11.361-0.905c-1.576-0.916-2.341-2.412-2.451-4.111c-0.47-7.284-0.511-14.576,0.02-21.861
			C1263.743,870.668,1264.275,869.785,1265.02,869.071z"/>
		<path fill-rule="evenodd" clip-rule="evenodd" fill="#74D5FC" d="M1265.774,1146.972c-0.086,9.261,1.168,18.557-0.723,27.771
			c-29.929,10.114-61.05,9.702-91.715,7.638c-41.096-2.765-71.663-23.198-88.157-62.083c-6.908-16.286-10.57-33.348-11.44-51.091
			c-0.308-6.301-0.663-12.593-0.694-18.901c-0.006-1.34,0.072-2.694-1.187-3.617c-1.754-1.937-1.449-4.357-1.465-6.653
			c-0.068-9.496,0.004-18.993-0.039-28.49c-0.031-6.672-0.325-6.993-7.117-6.998c-43.319-0.028-86.639-0.006-129.958-0.025
			c-2.487-0.001-5.009,0.245-7.428-0.619c-0.817-0.292-1.525-0.688-1.265-1.764c7.825-0.079,15.65-0.223,23.475-0.228
			c39.82-0.023,79.641-0.111,119.459,0.115c4.925,0.028,5.68-1.673,5.596-5.969c-0.406-20.829,1.301-41.438,7.729-61.416
			c10.977-34.116,32.102-58.304,67.193-69.07c8.139-2.497,16.327-4.164,24.783-4.706c0.781-0.53,1.607-0.423,2.444-0.175
			c8.712,0.55,17.433,0.145,26.149,0.219c0.557-0.042,1.109-0.124,1.655-0.247c18.477,0.589,36.707,3.316,54.935,6.157
			c2.544,0.396,4.597,1.777,7.015,2.251c0.229,9.271,0.459,18.54,0.689,27.81c-2.009,3.154-5.083,3.388-8.365,3.052
			c-25.021-2.562-50.08-3.944-75.256-3.634c-27.458,0.338-49.91,15.355-60.148,40.869c-5.527,13.771-7.594,28.14-8.65,42.861
			c-1.551,21.644-0.964,43.29-0.721,64.917c0.206,18.276,1.096,36.593,6.961,54.263c4.87,14.673,12.842,27.071,25.389,36.189
			c11.587,8.42,25.019,11.693,39.063,11.982c23.988,0.493,47.883-1.569,71.764-3.576
			C1259.568,1143.484,1263.042,1143.981,1265.774,1146.972z"/>
		<path fill-rule="evenodd" clip-rule="evenodd" d="M924.588,1002.139c1.515,1.091,3.228,0.452,4.826,0.453
			c45.896,0.041,91.791,0.089,137.686-0.064c4.208-0.014,5.364,1.168,5.214,5.293c-0.471,12.948,0.399,25.918-0.457,38.869
			c-47.625,0.018-95.252,0.106-142.878-0.063c-4.5-0.017-5.51,1.18-5.439,5.517c0.267,16.315,0.036,32.639,0.167,48.957
			c0.026,3.311-0.599,4.901-4.392,4.531c-6.737-0.657-13.57,0.754-20.297-0.729c0.026-49.944,0.05-99.89,0.084-149.834
			c0.002-1.996,0.111-3.991,0.171-5.986c6.794-0.028,13.6,0.167,20.378-0.176c3.601-0.182,4.066,1.341,4.044,4.34
			c-0.106,14.585-0.078,29.172-0.008,43.758C923.695,998.719,922.905,1000.678,924.588,1002.139z"/>
		<path fill-rule="evenodd" clip-rule="evenodd" fill="#85DAFD" d="M1174.984,860.955c-0.72-0.029-1.44-0.06-2.16-0.09
			c2.855-1.932,6.114-0.392,9.117-1.059c3.016-0.003,6.031-0.004,9.047-0.007c4.002,0.649,8.151-0.767,12.083,0.864
			c0-0.001-0.161,0.339-0.161,0.339C1193.6,861.682,1184.292,861.749,1174.984,860.955z"/>
		<path fill-rule="evenodd" clip-rule="evenodd" fill="#FEFEFE" d="M1265.774,1146.972c-4.263-1.393-8.423-1.712-13.073-1.375
			c-23.149,1.675-46.312,3.879-69.556,3.153c-22.487-0.701-41.442-8.951-54.66-27.892c-8.028-11.503-12.336-24.563-14.458-38.331
			c-4.766-30.928-3.032-62.103-2.744-93.165c0.162-17.511,2.125-35.054,8.789-51.694c10.228-25.541,30.667-41.6,59.407-42.646
			c26.278-0.956,52.481,0.658,78.588,3.725c2.879,0.337,5.137-1.1,7.645-1.867c2.496,0.042,4.993,0.121,7.491,0.121
			c410.608,0.006,821.216,0.012,1231.825-0.093c4.22-0.001,5.253,1.128,5.238,5.251c-0.146,42.327-0.078,84.655-0.135,126.982
			c-0.003,1.687,0.909,3.704-1.021,5.059c-14.305,0.458-28.617,0.009-42.923,0.256c-3.016,0.053-4.028-1.788-5-3.973
			c-0.874-1.968-0.634-4.315-2.081-6.081c-1.649-2.586-2.317-5.477-2.576-8.486c0.075-2.381-0.618-4.64-1.191-6.914
			c-0.156-0.415-0.281-0.844-0.397-1.272c-0.602-2.068-1.093-4.168-1.705-6.237c-0.167-0.4-0.301-0.811-0.431-1.224
			c-0.726-2.034-0.928-4.259-2.267-6.066c-0.88-1.419-0.923-3.018-1.018-4.606c-0.103-1.99-0.722-3.875-1.216-5.782
			c-0.153-0.408-0.276-0.826-0.396-1.245c-0.659-2.067-1.042-4.213-1.826-6.247c-0.21-0.406-0.387-0.822-0.561-1.243
			c-1.688-5.083-2.401-10.459-4.708-15.347c-0.678-0.985-1.033-2.081-1.13-3.265c-0.112-1.518,0.081-3.065-0.381-4.558
			c-0.163-0.399-0.304-0.806-0.452-1.211c-0.807-1.805-1.066-3.779-1.78-5.617c-0.192-0.429-0.345-0.865-0.491-1.311
			c-0.955-3.173-1.787-6.382-2.653-9.569c-3.959-14.569-17.173-20.159-30.626-18.664c-12.188,1.355-20.498,7.877-23.885,20.053
			c-0.754,2.713-1.469,5.445-2.349,8.121c-0.127,0.441-0.293,0.873-0.467,1.298c-0.817,2.047-1.104,4.257-1.841,6.335
			c-0.113,0.428-0.257,0.844-0.402,1.261c-0.588,1.932-0.98,3.914-1.541,5.857c-0.1,0.474-0.235,0.93-0.376,1.391
			c-1.972,7.778-4.624,15.361-6.425,23.181c-0.888,2.593-1.406,5.297-2.311,7.885c-1.832,5.282-2.883,10.788-4.572,16.108
			c-0.155,0.437-0.344,0.866-0.535,1.289c-0.839,2.1-1.251,4.319-1.732,6.518c-0.08,0.445-0.206,0.876-0.345,1.305
			c-1.216,2.89-1.667,6.009-2.65,8.97c-0.121,0.432-0.275,0.853-0.432,1.271c-0.692,2.16-1.126,4.39-1.761,6.57
			c-0.105,0.485-0.252,0.95-0.415,1.417c-7.575,27.804-15.847,55.403-23.48,83.183c-1.904,6.928-0.647,8.654,6.559,8.979
			c13.816,0.622,14.492,0.182,18.337-13.057c4.505-15.511,8.796-31.082,12.936-46.7c0.096-0.554,0.249-1.085,0.435-1.611
			c2.963-8.613,2.963-8.558,12.302-8.633c20.467-0.165,40.938,0.423,61.402-0.317c4.381-0.159,6.149,2.707,7.15,6.323
			c3.686,13.312,7.646,26.545,11.199,39.893c1.584,5.952,3.597,11.779,5.101,17.754c0.593,2.351,1.717,4.515,4.163,5.25
			c5.528,1.662,11.225,1.584,16.757,0.282c3.53-0.83,3.026-3.866,2.179-6.567c-3.243-10.324-5.831-20.835-8.87-31.219
			c-2.384-8.146-4.643-16.328-6.949-24.497c-1.443-5.113-0.783-6.021,4.38-5.987c11.146,0.071,22.295-0.259,33.438,0.178
			c2.53-0.024,1.847,1.916,1.849,3.237c0.035,27.489,0.006,54.979,0.063,82.469c0.005,2.52-0.703,3.743-3.414,3.477
			c-1.815-0.179-3.662-0.044-5.494-0.044c-410.349-0.001-820.696-0.002-1231.045,0.007
			C1268.764,1146.768,1267.269,1146.902,1265.774,1146.972z"/>
		<path fill-rule="evenodd" clip-rule="evenodd" fill="#74D5FC" d="M2508.3,1057.623c-10.97,0.121-21.942,0.397-32.911,0.284
			c-4.313-0.044-4.9,0.903-3.623,5.133c5.272,17.469,10.205,35.045,14.986,52.658c3.168,11.673,2.684,12.067-9.751,12.068
			c-0.833,0-1.665,0.002-2.498,0.003c-10.483,0.009-11.052-0.577-13.724-10.36c-5.02-18.385-10.263-36.708-15.338-55.077
			c-1.043-3.775-2.842-4.882-7.102-4.786c-19.473,0.436-38.96,0.229-58.442,0.246c-9.466,0.009-9.466,0.003-12.978,8.352
			c-2.683-6.438-0.311-10.433,6.331-10.604c2.315-0.06,4.64,0.048,6.871-0.753c18.202-0.615,36.412-0.12,54.619-0.28
			c2.151-0.019,4.305,0.034,6.43-0.057c1.025-0.301,1.986-0.688,1.074-2.008c-0.77-1.114-2.073-1.637-3.04-2.535
			c-2.034-1.889-3.084-3.402,0.565-4.987c6.523-2.832,6.447-3.009,7.075,3.743c2.052-4.021,1.061-10.713-2.078-13.599
			c-1.336-1.228-3.227-2.28-2.364-4.435c0.808-2.018,3.03-1.888,4.754-2.045c4.549-0.414,8.21,3.613,12.923,2.432
			c0.115-2.491-2.276-5.226-0.277-8.093c0.528,0.81,1.262,1.552,1.553,2.438c2.786,8.498,2.766,8.463,11.482,8.514
			c12.098,0.07,24.194,0.212,36.281,0.324c-13.135,0.116-26.262,0.376-39.385,0.259c-4.11-0.036-5.424,0.96-4.034,5.05
			c1.603,4.717,2.959,9.524,4.231,14.344c0.713,2.7,2.09,3.602,4.948,3.577C2486.019,1057.333,2497.16,1057.533,2508.3,1057.623z"/>
		<path fill-rule="evenodd" clip-rule="evenodd" fill="#6FD4FC" d="M1108.635,1058.986c0-25.047,0-50.092,0-75.138
			c0.329,0,0.657,0,0.985,0c0,25.046,0,50.092,0,75.139C1109.292,1058.986,1108.964,1058.986,1108.635,1058.986z"/>
		<path fill-rule="evenodd" clip-rule="evenodd" fill="#6BD2FC" d="M1174.017,1150.167c14.895,0,29.789,0,44.684,0
			c0.001,0.135,0.003,0.268,0.004,0.402c-14.895,0-29.789,0-44.684,0C1174.02,1150.434,1174.018,1150.301,1174.017,1150.167z"/>
		<path fill-rule="evenodd" clip-rule="evenodd" fill="#79DFFE" d="M1264.603,1149.613c0,7.184,0,14.368,0,21.904
			C1262.631,1168.637,1262.254,1154.916,1264.603,1149.613z"/>
		<path fill-rule="evenodd" clip-rule="evenodd" fill="#6AD1FC" d="M1225.907,893.671c-8.895,0-17.789,0-26.684,0
			c-0.002-0.134-0.005-0.268-0.007-0.401c8.895,0,17.789,0,26.684,0C1225.902,893.403,1225.905,893.537,1225.907,893.671z"/>
		<path fill-rule="evenodd" clip-rule="evenodd" fill="#69D2FC" d="M1174.984,860.955c9.309,0.016,18.618,0.03,27.926,0.046
			c-6.708,2.083-13.582,0.551-20.371,0.855C1180.054,861.968,1177.295,862.887,1174.984,860.955z"/>
		<path fill-rule="evenodd" clip-rule="evenodd" fill="#74D5FC" d="M2179.838,921.927c5.197,6.351,7.973,14.063,11.76,21.189
			c17.944,33.766,35.685,67.64,53.498,101.476c6.429,12.21,12.812,24.446,19.349,36.599c0.843,1.565,1.007,4.704,3.529,4.008
			c1.96-0.542,0.908-3.24,0.91-4.942c0.054-51.472,0.044-102.945,0.046-154.417c0.001-9.337,0.6-9.938,9.818-9.938
			c2.998,0,6.002,0.106,8.994-0.031c4.533-0.209,6.369,2.003,6.236,6.351c-0.092,2.994-0.017,5.996-0.017,8.994
			c0.001,61.468,0.003,122.935,0.001,184.402c0,9.144-2.727,12.086-11.759,12.099c-5.134,0.007-10.259,0.268-15.433-0.444
			c-4.198-0.578-6.568-2.673-8.371-6.099c-9.832-18.679-19.686-37.346-29.533-56.016c-17.843-33.823-35.666-67.657-53.577-101.444
			c-1.187-2.236-1.535-6.693-4.205-6.019c-2.997,0.758-1.206,4.927-1.212,7.505c-0.115,51.139-0.076,102.279-0.125,153.418
			c-0.002,2.072,0.792,4.355-0.93,6.204c-1.635-2.06-0.94-4.488-0.942-6.748c-0.043-51.616-0.033-103.232-0.036-154.849
			c-0.005,51.387,0,102.773-0.006,154.159c-0.001,7.399-0.572,7.976-7.806,8.127c-13.678,0.286-13.679,0.286-13.679-13.145
			c0-60.607,0-121.215,0.004-181.823c0-1.998-0.129-4.006,0.11-5.99c0.571-4.721,2.726-6.75,7.489-6.975
			c3.492-0.165,6.998,0.083,10.487-0.087C2170.107,917.214,2175.602,917.329,2179.838,921.927z"/>
		<path fill-rule="evenodd" clip-rule="evenodd" fill="#74D5FC" d="M1393.167,1127.766c-1.167-0.001-2.333,0.005-3.5-0.002
			c-7.596-0.046-8.622-0.657-10.633-7.669c-5.446-18.984-10.927-37.963-16.04-57.038c-1.229-4.587-2.84-5.641-7.817-5.523
			c-21.147,0.5-42.316,0.308-63.471-0.038c-3.499-0.058-4.952,1.046-5.749,3.909c-3.693,13.276-7.335,26.566-11.008,39.849
			c-1.942,7.022-3.954,14.027-5.847,21.063c-0.839,3.117-2.828,5.056-5.921,5.208c-5.145,0.254-10.321,0.275-15.466,0.021
			c-4.501-0.223-5.998-2.921-4.784-7.191c1.949-6.858,3.907-13.715,5.839-20.579c6.473-22.996,12.867-46.014,19.423-68.986
			c7.335-25.703,14.816-51.364,22.231-77.044c2.065-7.15,3.781-14.423,6.255-21.429c4.451-12.608,15.863-19.278,30.442-18.342
			c13.151,0.843,22.493,8.925,26.009,21.651c5.614,20.317,11.655,40.515,17.42,60.79c7.164,25.195,14.229,50.418,21.34,75.627
			c4.365,15.476,8.812,30.93,13.074,46.434c2.024,7.364,0.438,9.224-7.3,9.289
			C1396.167,1127.779,1394.667,1127.767,1393.167,1127.766z"/>
		<path fill-rule="evenodd" clip-rule="evenodd" fill="#74D5FC" d="M2076.765,917.872c1.051-1.951,2.885-1.985,4.76-1.977
			c4.165,0.019,8.331-0.017,12.495,0.016c5.91,0.047,6.897,1.029,6.9,7.063c0.016,31.321,0.006,62.642,0.006,93.963
			c0,13.328,0.281,26.663-0.067,39.982c-0.439,16.82-3.613,33-13.588,47.115c-9.702,13.729-23.479,20.867-39.678,23.389
			c-21.772,3.391-43.204,2.895-62.762-9.034c-15.863-9.675-23.285-24.967-26.956-42.489c-0.542-2.585-0.711-5.246-1.052-7.873
			c-0.72-6.436-0.873-12.916-0.892-19.367c-0.122-40.474-0.059-80.948-0.068-121.423c-0.001-3.163,0.008-6.314,0.939-9.38
			l-0.019,0.009c0.837-0.438,1.708-0.771,2.659-0.862c6.83,0.341,13.737-1.093,20.498,0.875l-0.028-0.014
			c0.82,1.75,0.413,3.611,0.415,5.415c0.025,43.28,0.02,86.56,0.021,129.84c0,3.989,0.182,7.96,1.491,11.785
			c1.002,5.893,1.788,11.834,4.029,17.438c5.3,13.261,14.867,21.022,29.02,23.765c11.194,2.169,22.03,1.834,32.855-1.577
			c16.364-5.155,23.083-17.778,26.054-33.384c1.505-7.908,1.169-15.891,1.171-23.861c0.012-39.97,0.001-79.939,0.014-119.909
			c0.001-3.28-0.288-6.638,1.808-9.53c0.847,1.012,0.533,2.226,0.533,3.36c0.014,45.798,0.012,91.596,0.008,137.394
			c0,0.754,0.164,1.534,0.034,1.731c0-9.424-0.003-19.354,0.001-29.283c0.014-36.805-0.034-73.61,0.037-110.415
			C2077.406,919.638,2077.672,918.634,2076.765,917.872z"/>
		<path fill-rule="evenodd" clip-rule="evenodd" fill="#74D5FC" d="M1437.321,915.899c13.363-0.065,11.991-1.076,15.703,12.42
			c5.763,20.948,11.678,41.856,17.393,62.818c7.285,26.721,14.39,53.492,21.664,80.217c2.743,10.076,5.787,20.069,8.596,30.128
			c0.878,3.145,2.595,5.997,5.778,6.023c3.42,0.027,4.667-3.365,5.498-6.296c3.663-12.923,7.275-25.859,10.844-38.808
			c4.539-16.469,9.012-32.956,13.523-49.432c7.876-28.765,15.755-57.529,23.646-86.289c0.571-2.083,1.318-4.118,1.874-6.204
			c0.857-3.219,2.927-4.632,6.209-4.592c4.664,0.058,9.33-0.056,13.993,0.028c5.278,0.096,6.742,2.091,5.25,7.368
			c-5.958,21.068-12.037,42.101-17.979,63.174c-7.194,25.518-14.286,51.067-21.438,76.597c-4.387,15.656-8.716,31.33-13.239,46.948
			c-3.185,11.001-13.368,18.496-24.912,18.918c-7.254,0.266-14.224-0.164-20.612-4.292c-6.769-4.372-10.007-10.941-12.118-18.268
			c-6.613-22.954-13.208-45.914-19.69-68.906c-8.592-30.482-17.053-61.001-25.609-91.494c-1.793-6.39-3.7-12.75-5.651-19.093
			c-2.898-9.425-1.841-10.957,7.78-10.965C1434.99,915.9,1436.155,915.901,1437.321,915.899z"/>
		<path fill-rule="evenodd" clip-rule="evenodd" fill="#73D5FC" d="M1921.766,1104.908c0.369,0.381,0.736,0.761,1.105,1.141
			c0.792,5.289,0.788,10.579-0.001,15.867c-2.283,3.776-6.166,3.665-9.845,4.048c-4.976,1.187-10.29-0.178-15.133,2.009l0.034-0.029
			c-13.365,0.726-26.729,0.762-40.094-0.021c-27.014-3.583-45.33-18.23-54.97-43.611c-5.49-14.453-7.032-29.618-7.038-44.967
			c-0.006-14.977-0.377-29.973,0.271-44.924c0.797-18.399,4.298-36.253,15.023-51.854c11.46-16.67,27.832-24.939,47.499-27.642
			c18.688-2.568,37.034,0.478,55.423,3.007c0.961,0.133,1.874,0.619,2.809,0.94c1.42,1.354,3.462-0.152,4.91,1.068
			c0.395,0.607,0.789,1.214,1.184,1.82c0.688,5.124,0.661,10.25,0.015,15.375c-1.496,2.041-3.196,2.384-5.914,2.208
			c-18.849-1.22-37.695-4.305-56.62-1.454c-18.302,2.758-28.865,14.404-34.601,31.198c-3.857,11.294-4.519,23.104-4.735,34.862
			c-0.311,16.958-0.849,33.979,0.943,50.865c1.886,17.767,6.796,34.39,23.133,44.793c3.318,2.113,7.158,3.406,10.758,5.078
			c6.896,2.475,14.019,2.593,21.207,2.039c9.271,0.196,18.544,0.655,27.784-0.517c2.485-1.376,5.439-0.083,7.94-1.389l-0.05,0.035
			C1915.795,1104.209,1918.783,1104.104,1921.766,1104.908z"/>
		<path fill-rule="evenodd" clip-rule="evenodd" fill="#73D4FC" d="M1769.839,1122.889c-0.014,0.348-0.027,0.695-0.041,1.044
			c-1.081,2.29-3.226,2.847-5.383,2.856c-6.25,0.027-12.542,0.755-18.727-0.807c-0.28-0.318-0.56-0.638-0.84-0.956
			c-0.824-1.983-0.034-4.495-1.993-6.11l0.017,0.023c-1.023-2.246,0.263-5.155-2.016-7.044c-0.128-0.242-0.145-0.492-0.05-0.75
			c-1.985-8.171-3.759-16.401-6.972-24.219l0.025,0.034c-0.684-2.347-0.513-4.937-1.991-7.06c-0.123-0.253-0.14-0.513-0.051-0.779
			c-1.24-3.322-0.854-7.128-3.027-10.172l0.042,0.041c-0.902-2.284,0.044-5.088-1.983-7.055l0.021,0.017
			c-0.545-2.312-0.394-5.187-4.038-4.993l0.015,0.039c-0.263-0.369-0.558-0.709-0.909-1.003
			c-18.476,0.533-36.927,0.452-55.371,0.084c-1.183-0.247-1.857-1.214-2.757-1.898c-3.543-2.695-5.957-2.293-8.255,1.156
			c-1.428,0.027-2.863,0.25-4.271-0.168c-1.896-0.803-2.181-2.232-1.718-4.082c2.077-8.298,0.956-16.723,0.79-25.092
			c-0.047-2.361,0.833-3.643,2.479-4.974c2.374-1.918,5.216-3.623,4.87-7.27c-2.795,6.061-5.442,7.643-10.898,4.754
			c-3.963-2.098-5.928,0.311-6.997,2.459c-2.959,5.948-2.599,12.697-3.132,19.166c-0.313,3.79,1.872,6.439,5.331,7.921
			c0.086,0.286,0.052,0.558-0.118,0.775c0.109-0.061,0.299-0.206,0.608-0.461c3.851-0.382,4.149,1.923,3.482,4.721
			c-0.833,3.496-3.234,4.234-8.673,2.7c0.044,3.343,1.121,7.233-3.15,8.166c4.805-3.001,5.766,1.762,7.54,5.093
			c-1.622-6.445,4.125-14.142,10.152-13.656c2.353,0.357,4.56-0.508,6.833-0.72c1.916-0.18,4.016-0.433,5.421,1.502
			c-3.294,2.374-6.868,1.087-10.365,0.801c-1.871,0.185-3.732,0.381-3.748,2.936c-2.095,1.954-1.1,4.791-2.023,7.081l0.04-0.044
			c-2.231,3.341-2.005,7.362-3.055,11.03l0.033-0.048c-1.585,2.091-1.365,4.699-2.019,7.058l0.042-0.043
			c-2.47,5.806-3.475,12.021-5.062,18.073c0.075,0.309,0.053,0.609-0.068,0.903c-1.12,1.925-1.379,4.111-1.884,6.223
			c0.085,0.263,0.062,0.516-0.069,0.759c-1.798,2.039-1.144,4.761-1.971,7.069l0.033-0.041c-2.068,1.499-1.122,4.053-2.078,5.94
			c-0.401,0.679-0.801,1.357-1.202,2.036c-7.622,1.47-15.249,1.503-22.879,0.07l0.013,0.011c-1.251-3.903,0.157-7.574,0.992-11.295
			c-0.098-0.263-0.086-0.52,0.038-0.772c2.282-1.886,0.995-4.797,2.021-7.043l-0.016,0.023c2.019-4.146,3.051-8.591,3.962-13.072
			l-0.045,0.039c2.269-3.326,2.014-7.356,3.069-11.021l-0.032,0.048c1.582-2.095,1.375-4.697,2.01-7.062l-0.045,0.039
			c2.026-1.955,1.196-4.742,2.049-7.037l-0.043,0.042c2.194-2.986,1.708-6.788,3.057-10.031l-0.033,0.053
			c1.195-2.551,1.397-5.353,2.042-8.043l-0.03,0.039c3.109-7.832,5.024-16.011,7-24.172c-0.089-0.273-0.071-0.539,0.054-0.799
			c2.254-1.887,0.966-4.787,2.007-7.022l-0.008,0.013c1.934-4.231,3.035-8.71,3.922-13.252c0.384-1.586,0.768-3.172,1.152-4.757
			c1.776-1.656,1.119-4.077,1.899-6.045l-0.031,0.047c1.582-2.09,1.354-4.7,2.022-7.054l-0.038,0.043
			c2.023-1.954,1.151-4.751,2.048-7.032l-0.031,0.046c1.797-3.151,1.922-6.798,3.009-10.159c-0.081-0.283-0.06-0.558,0.064-0.824
			c1.454-2.118,1.252-4.703,1.986-7.022l-0.011,0.017c2.231-1.904,1.002-4.787,1.993-7.041l-0.025,0.014
			c0.577-0.537,1.197-0.586,1.858-0.166c0.594,0.584,1.322,0.876,2.232,0.97c-0.743-0.608-1.867-0.258-2.383-1.14
			c-1.191-3.435,1.073-6.416,1.268-9.666c0.208-2.783,0.872-5.445,2.088-7.964c1.856-1.632,1.153-4.087,1.947-6.061l-0.032,0.04
			c1.268-1.107,1.478-2.719,1.999-4.183c1.024-1.213,1.081-3.106,2.727-3.882c1.178-0.979,2.217-2.099,3.275-3.2
			c1.309-0.922,2.617-1.845,3.926-2.767c1.706-0.68,3.824-0.323,5.117-2.039l-0.04,0.039c7.044-1.263,14.088-1.289,21.131,0.013
			l-0.038-0.033c1.583,1.799,4.279,1.449,5.952,3.076c3.722,2.341,6.327,5.786,9.024,9.139c0.793,1.568,0.452,3.625,2.078,4.835
			l-0.033-0.039c0.836,2.302,0.138,5.04,2.003,7.05l-0.022-0.029c0.708,2.343,0.498,4.951,2.022,7.062
			c0.416,1.311-0.473,2.931,0.95,4.003c0.981,2.231,0.131,5.01,2.083,6.95l-0.036-0.04c0.873,2.29,0.073,5.065,2.039,7.038
			l-0.037-0.041c0.669,2.353,0.458,4.955,2.014,7.053l-0.027-0.041c0.685,2.354,0.497,4.954,2.008,7.072
			c0.121,0.233,0.137,0.474,0.05,0.722c1.748,5.386,2.401,11.102,4.906,16.259c0.134,0.247,0.16,0.505,0.08,0.774
			c0.721,2.048,0.04,4.525,1.907,6.221c0.123,0.28,0.143,0.567,0.061,0.862c0.63,1.481,0.92,3.031-0.752,3.919
			c-1.736,0.923-2.116-1.066-3.073-1.795c-3.053-2.33-6.197-2.203-9.252-0.15c-1.635,1.1-2.504,2.658-1.396,4.729
			c1.249,2.336,2.088,4.087-0.18,7.006c-1.033,1.329-0.671,6.214,0.722,9.296c0.834,1.848,1.279,3.782,1.235,5.818
			c-0.024,1.105-0.467,2.049-1.548,2.294c-1.178,0.267-1.742-0.738-2.237-1.605c-0.918-1.608-0.664-3.614-1.724-5.182
			c-0.229-0.401-0.411-0.824-0.563-1.26c-0.587-2.144-0.216-4.539-1.708-6.449c-0.22-0.41-0.384-0.841-0.517-1.285
			c-1.343-4.052-0.484-8.548-2.787-12.466c-1.125-1.915,0.48-3.739,1.434-5.443c-2.331,0.422-3.671-0.522-3.981-2.886
			c-0.134-1.018-0.682-1.861-1.159-2.739c-0.225-0.443-0.389-0.904-0.518-1.382c-0.29-1.746-0.507-3.484,0.643-5.04
			c0.76-0.888,1.838-1.074,2.701-0.525c5.441,3.459,9.669,0.269,14.438-2.404c0.235,0.01-0.468-1.138-0.304-0.491
			c0.042,0.168-0.134,0.118-0.402,0.212c-2.505,0.883-2.743-0.646-1.992-2.225c1.075-2.265,0.796-3.954-0.788-5.857
			c-1.502-1.802-0.75-4.197-0.732-6.295c0.033-4.09-0.173-7.996-3.36-11.063c-1.047-1.008-0.845-2.343-0.856-4.105
			c-0.83,3.07-3.053,3.763-5.242,4.637c-5.009,2.003-5.957,4.407-3.876,9.463c0.389,0.947,0.703,1.911,0.489,2.901
			c-0.759,3.523-0.45,6.875,0.971,10.229c0.712,1.68,0.754,3.593-0.629,5.178c-1.577,0.777-2.191-0.623-3.104-1.357
			c-1.02-1.271-1.22-2.785-1.289-4.337c0.511-4.783-1.826-8.919-3.054-13.307c-0.237-0.444-0.415-0.909-0.557-1.39
			c-0.331-1.735-0.559-3.464,0.443-5.078c2.089-3.119,4.914-5.781,5.823-9.085c-2.885,1.747-4.145,5.029-5.202,8.433
			c-0.599,0.674-1.243,0.457-1.896,0.102c-0.382-0.292-0.68-0.656-0.914-1.074c-0.641-2.208-0.813-4.561-2-6.608
			c-0.169-0.434-0.29-0.881-0.381-1.336c-0.609-3.114-0.767-6.343-2.365-9.205c-0.224-0.413-0.392-0.847-0.531-1.294
			c-0.159-3.307-2.422-6.025,0.424-10.119c1.946-2.798-0.659-8.52-0.208-12.988c0.028-0.272-0.162-0.433-0.168-0.439
			c-1.4-1.815-12.326,0.242-13.169,2.54c-0.75,2.041-1.136,4.316-3.612,4.285c1.377-0.23,2.865,0.202,3.127,2.211
			c0.242,1.848-0.682,3.274-2.447,3.891c-2.27,0.792-4.598,0.588-6.883-0.05c-3.43-0.958-5.633,0.206-6.047,3.805
			c-0.313,2.722-2.09,4.833-2.589,7.505c-0.871,4.655-1.052,4.673,1.583,10.723c-0.656-3.509,1.21-4.265,2.741-5.283
			c1.581-1.05,2.584-2.081,5.143-0.745c2.663,1.391,4.466-1.904,5.494-4.287c0.779-1.804,0.884-3.88,1.326-5.829
			c1.544-6.82,7.292-8.599,13.206-4.061c-0.026,0.362-0.178,0.777-0.495,0.806c-8.707,0.777-9.857,7.458-11.052,14.106
			c-0.147,0.819-0.214,1.651-0.398,2.465c-0.094,0.457-0.241,0.897-0.412,1.331c-1.212,2.019-1.433,4.323-1.873,6.57
			c-0.141,0.463-0.331,0.902-0.55,1.331c-2.24,8.004-5.21,15.812-6.245,24.125c-0.116,0.494-0.296,0.963-0.518,1.417
			c-1.468,3.134-2.045,6.555-3.155,9.803c-0.567,1.661-0.587,3.744-3.17,3.601c-1.337-1.091-1.656-2.747-1.103-4.067
			c2.678-6.396,0.945-13.008,1.209-19.512c0.058-1.428,0.592-2.493,1.479-3.55c2.208-2.632,2.744-5.576,1.352-8.79
			c-0.809-1.143-1.109-2.776-2.935-3.008c1.381,0.759,2.326,1.867,3.053,3.182c-0.454,2.466-1.685,3.341-4.229,2.452
			c-4.074-1.423-6.898,0.541-6.781,5.022c0.07,2.656-0.072,4.527-3.068,5.243c-1.937,0.463-1.709,2.143-1.548,3.681
			c0.501,4.804,2.636,9.973-3.01,13.431c-0.614,0.376-0.674,1.3,0.027,1.647c2.545,1.26,2.341,3.302,1.824,5.537
			c-0.162,0.701,0.238,1.2,0.94,1.521c2.555,1.17,9.184-0.172,11.167-2.323c0.492-0.532,0.985-0.838,1.69-0.414
			c2.084,2.917,0.372,5.813-0.032,8.716c-0.105,0.48-0.257,0.949-0.423,1.411c-1.127,2.426-1.47,5.059-1.968,7.654
			c-0.147,0.481-0.35,0.936-0.587,1.376c-0.945,3.339-2.062,6.634-2.876,9.997c-1.445,5.972-1.112,6.354,4.894,6.368
			c16.312,0.039,32.625,0.012,48.937,0.015c1.498,0,2.997,0.04,4.494,0.01c3.912-0.079,6.454,1.446,6.675,5.662
			c0.205,3.912,2.268,5.548,6.125,5.6c3.395,0.047,6.618,0.696,8.365,4.294c0.985,2.029,3.22,1.564,5.043,2.021
			c-4.797-2.677-6.7-6.813-6.468-12.087c0.11-2.512-0.661-4.958-0.589-7.456c0.117-4.1,3.581-6.784,7.271-5.724l-0.025-0.029
			c0.647,2.696,0.896,5.493,2.021,8.07c0.138,1.062-0.177,2.265,0.947,3.017c0.99,2.222,0.104,5.01,2.092,6.931l-0.039-0.042
			c0.673,2.351,0.425,4.968,2.032,7.05l-0.035-0.048c0.659,2.354,0.468,4.95,2.002,7.057l-0.022-0.037
			c0.783,1.458,0.401,3.021,0.406,4.541c-1.191,1.579-2.305,0.989-3.19-0.257c-2.568-3.617-6.617-3.634-10.323-4.01
			c-3.748-0.38-5.213,2.652-4.577,6.406c0.941,5.553,2.526,10.985,2.985,16.636c0.547,6.746,1.873,7.744,8.456,6.743
			c2.795-0.425,5.657,0.041,8.44-0.712c0.079-1.112-1.563-0.992-1.427-1.645c1.548-7.428-3.513-14.41-1.42-21.848
			c0.042-0.152,0.181-0.277,0.276-0.417c1.094-1.063,1.701-0.267,2.289,0.597c0.048,0.588,0.096,1.177,0.145,1.765
			c1.567,2.895,0.721,6.546,2.904,9.246l0.002,0.003c1.067,2.215-0.249,5.125,2.032,6.988l-0.014-0.021
			c0.871,2.623,0.179,5.645,2.041,8.016l-0.024-0.039c1.363,3.699,1.293,7.779,3.178,11.378c0.639,1.22,0.946,3.271-0.175,4.246
			c-1.599,1.393-2.53-0.734-3.651-1.488c-4.955-3.331-7.022-3.403-12.239,0.069c4.003,1.363,4.028,4.151,3.122,7.408
			c-0.678,2.437,0.505,4.003,3.013,4.021c3.736,0.027,7.732,1.185,10.917-1.969c1.106-1.096,2.044-0.82,2.844,0.392
			c0.124,0.247,0.138,0.501,0.042,0.761C1768.484,1118.782,1768.744,1120.96,1769.839,1122.889z"/>
		<path fill-rule="evenodd" clip-rule="evenodd" fill="#73D4FC" d="M2379.813,1055.916c-1.625,1.715-3.813,1.209-5.598,0.905
			c-4.877-0.828-6.845,1.427-7.184,5.881c-0.088,1.142-0.078,2.291-0.112,3.439c0.069,0.265,0.045,0.519-0.071,0.765
			c-2.578,0.881-3.494,0.129-3.107-3.217c0.543-4.696,0.833-9.452,1.904-14.055c0.531-2.28,0.162-4.182-0.614-6.213
			c-0.522-1.365-1.46-2.794-0.71-4.276c1.221-2.414,1.521-4.795-1.496-5.589c-2.936-0.772-6.283-1.415-8.537,1.85
			c-0.186,0.269-0.271,0.604-0.419,0.899c-0.516,1.033-0.952,2.302-2.47,1.87c-1.577-0.449-1-1.859-1.055-2.938
			c-0.042-0.816-0.092-1.66,0.416-2.392l-0.039,0.043c2.037-1.945,1.141-4.751,2.058-7.025l-0.029,0.037
			c2.069-3.085,1.794-6.857,2.985-10.201c-0.094-0.262-0.078-0.518,0.047-0.765c1.488-2.125,1.321-4.717,1.993-7.072l-0.029,0.039
			c2.773-5.375,3.442-11.37,5.028-17.094c0.178-2.762,0.835-5.399,2.059-7.889c2.942-7.857,5.238-15.901,6.937-24.116
			c-0.073-0.306-0.045-0.602,0.085-0.888c1.8-1.651,1.136-4.08,1.909-6.054l-0.036,0.042c1.963-1.978,1.174-4.749,2.032-7.045
			l-0.04,0.036c0.697-0.672,1.387-1.698,2.402-0.528c0.917,1.057,1.226,2.5,1.023,3.769c-1.148,7.18-0.254,14.501-1.633,21.662
			c-0.728,3.784-3.382,6.651-4.533,10.256c2.639-0.684,4.511-2.647,6.663-4.161c1.326-0.933,2.793-2.416,4.354-0.716
			c1.396,1.52,0.995,3.387-0.019,5.094c-0.594,0.998-1.913,1.375-2.348,3.098c2.637,0.076,3.486-1.901,3.857-3.508
			c1.93-8.345,6.389-16.043,6.703-24.755c0.165-4.567,0.801-9.148,0.282-13.728c-0.74-6.527,1.94-9.327,8.577-9.362
			c4.805-0.025,9.604,0.156,14.406,0.085c1.941-0.029,4.699-0.804,5.43,1.256c0.948,2.672,1.944,6.395-0.184,8.494
			c-2.113,2.085-2.29,4.668-3.65,6.843c-2.103,1.112-2.624-0.575-3.109-1.909c-0.563-1.549-0.684-3.25-1.477-4.736
			c-0.21-0.422-0.386-0.859-0.552-1.299c-0.835-2.479-2.107-4.477-5.098-4.493c-2.728-0.016-4.07,1.736-4.964,4.011
			c-0.154,0.42-0.346,0.828-0.545,1.229c-1.399,2.135-1.217,4.657-1.695,7.018c-0.128,0.438-0.303,0.855-0.51,1.261
			c-1.998,5.241-3.672,10.573-4.639,16.108c0.007,0.468-0.057,0.926-0.16,1.38c-1.246,4.183-3.216,8.162-3.51,12.607
			c-0.096,0.443-0.25,0.87-0.437,1.282c-1.437,1.823-1.37,4.064-1.697,6.196c-0.099,0.432-0.249,0.846-0.422,1.252
			c-1.419,3-1.954,6.234-2.501,9.467c-0.096,0.435-0.24,0.854-0.412,1.263c-1.179,1.938-1.32,4.167-1.755,6.317
			c-0.137,0.441-0.318,0.86-0.53,1.269c-1.729,5.269-3.143,10.616-4.168,16.065c-0.103,0.459-0.249,0.905-0.407,1.347
			c-1.073,2.371-1.412,4.926-1.857,7.457c-0.117,0.467-0.276,0.918-0.448,1.359c-0.174,3.601,2.674,2.33,4.24,2.347
			c13.422,0.142,26.846,0.071,40.269,0.08c4.475,0.003,8.949-0.044,13.423,0.026c2.341,0.036,4.713,0.1,5.76,2.897
			c-0.484-2.257-1.612-4.257-2.446-6.362c-0.223-0.461-0.388-0.94-0.519-1.434c-1.343-8.19-4.082-16.007-6.448-23.923
			c-0.25-0.455-0.43-0.936-0.564-1.435c-0.321-1.782-0.544-3.556,0.604-5.162c2.701-1.688,3.092,0.484,3.438,2.225
			c0.681,3.421,1.935,6.678,2.647,10.095c1.065,5.11,5.253,7.115,10.074,4.853c1.912-0.896,3.867-1.771,6.138-3.036
			c-3.993-2.437-3.198-5.715-3.074-9.565c0.233-7.273-1.815-14.381-6.47-20.324c-1.657-2.116-3-4.051-1.289-6.797
			c-2.176,1.783-3.072,3.841-2.65,6.715c0.375,2.553-0.818,4.818-3.598,5.039c-3.018,0.239-3.122,1.929-2.725,4.075
			c0.467,2.518-0.276,4.568-2.042,6.329c-0.702,0.577-1.354,0.3-2.004-0.108c-0.393-0.327-0.687-0.725-0.895-1.19
			c-1.237-5.763-2.16-11.616-4.726-17.018c-0.239-0.469-0.41-0.957-0.54-1.465c-1.491-8.307-4.32-16.262-6.392-24.416
			c-0.541-2.128-1.251-4.131-0.043-6.21c3.93-1.866,5.681-1.125,5.264,2.636c-0.407,3.686-0.764,6.852,3.37,8.803
			c1.837,0.866,0.872,2.945,0.844,4.558c-0.047,2.693,1.513,4.642,3.897,5.125c2.715,0.55,4.965-1.4,7.151-2.821
			c0.626-0.407,0.056-1.201-0.43-1.69c-0.594-0.6-1.438-1.393-1.164-2.096c2.79-7.16-2.616-13.632-1.646-20.627
			c0.262-1.89-0.417-4.013,1.874-5.566c1.393,2.291,0.609,5.238,2.426,7.197l-0.04-0.05c0.764,1.988,0.042,4.456,1.962,6.07
			l-0.014-0.02c1.166,1.517-0.307,3.583,1.055,5.058c0.149,1.073-0.113,2.271,0.932,3.073c1.722,5.614,2.473,11.52,5.061,16.875
			l-0.027-0.036c0.687,2.343,0.49,4.938,2.004,7.046l-0.018-0.03c0.83,1.942,0.164,4.354,1.893,6.014
			c0.675,1.613-0.517,3.626,1.083,5.042c1.004,2.22,0.062,5.037,2.122,6.934l-0.048-0.035c0.811,2.312,0.066,5.066,2.005,7.058
			l-0.033-0.04c0.663,2.351,0.508,4.926,1.949,7.061c0.138,2.801,0.807,5.469,2.004,8.005c0.574,3.515,0.982,7.064,2.321,10.071
			c-6.063,0.891-10.817-4.493-16.932-2.631c-0.825,0.251-2.079-0.581-2.214,1.024c-0.082,0.975,0.682,1.455,1.422,1.834
			c6.752,3.451,4.11,9.84,4.606,15.176c0.099,1.061,0.304,3.72-1.968,3.131c-1.62-0.42-2.51-2.693-2.197-4.353
			c0.223-1.193,1.666-2.719,0.371-3.449c-2.02-1.14-1.963,1.306-2.755,2.339c-1.133,1.478-2.841-0.997-4.261,0.682
			c0.266,2.444,2.836,2.785,4.372,3.956c2.028,1.547,3.146,2.91,1.235,5.21c-1.712-0.994-3.586-0.484-5.374-0.487
			c-21.319-0.037-42.638-0.033-63.776-0.021C2376.233,1055.735,2378.117,1054.922,2379.813,1055.916z"/>
		<path fill-rule="evenodd" clip-rule="evenodd" fill="#74D5FC" d="M2350.76,1032.845c0.232,1.514-0.361,3.216,0.888,4.78
			c2.948-6.802,10.448-8.128,14.716-3.026c0.91,1.088,1.568,1.956,0.354,2.795c-2.961,2.046-1.361,4.551-0.422,6.451
			c1.892,3.825,0.061,7.123-0.229,10.726c-0.328,4.097-2.013,8.164-1.002,12.342c0.032,0.134,1.163,0.001,1.782-0.007
			c-5.048,18.525-10.086,37.054-15.156,55.573c-0.662,2.418-2.2,4.087-4.747,4.575c-6.089,1.167-12.202,1.208-18.273-0.017
			c-3.227-0.65-4.328-2.813-3.425-5.972c8.383-29.292,16.77-58.583,25.165-87.873
			C2350.449,1033.055,2350.641,1032.96,2350.76,1032.845z"/>
		<path fill-rule="evenodd" clip-rule="evenodd" fill="#74D5FC" d="M2416.809,948.928c0.385-2.804-1.331-6.011,3.163-7.771
			c1.979-0.774-1.435-4.843,1.337-7.813c-8.896,0-16.948-0.498-24.872,0.296c-2.45,0.246-3.546,4.769-2.589,7.499
			c0.691,1.978,0.9,3.598-0.057,5.099c-2.073,3.255,1.208,6.256-0.351,10.032c-2.407,5.833-1.688,12.691-5.752,18.405
			c-1.155,1.625-0.293,5.178-1.771,7.699c-0.709,1.211-1.384,2.129-2.605,2.805c-1.77,0.979-2.89,0.135-3.768-1.203
			c-1.066-1.628,0.027-2.455,1.416-2.944c0.953-0.336,1.969-0.548,2.424-1.558c0.566-1.256,0.905-2.799-0.075-3.765
			c-1.195-1.178-1.989,0.392-2.818,1.052c-3.267,2.607-6.222,6.188-10.979,3.633c5.861-5.887,8.631-12.498,7.172-20.952
			c-0.505-2.927,1.039-6.153,1.185-9.264c0.089-1.888,1.731-4.849-2.148-5.287c1.327-6.165,2.812-12.227,5.909-17.86
			c5.775-10.502,20.173-14.487,29.806-12.731c15.454,2.817,22.354,9.863,25.403,25.257c0.352,1.781,0.717,3.56,1.076,5.34
			c-2.379-1.298-1.665-4.054-2.931-5.945c0.771,6.78-1.07,13.957,3.707,20.063c1.188,1.519-0.849,2.111-1.729,2.862
			c-1.593,1.355-1.465,2.603,0.311,3.434c0.852,0.398,2.699-0.637,2,1.538c-0.372,1.156-0.351,2.961-2.14,2.956
			c-2.192-0.006-3.721,1.016-5.26,2.383c-1.423,1.264-2.913,0.632-3.892-0.667c-1.55-2.055-5.246-3.045-3.552-6.815
			c0.595-1.323,1.725-3.208-0.636-3.54c-5.694-0.801-4.286-4.791-3.471-7.906C2421.271,949.638,2420.104,948.656,2416.809,948.928z"
			/>
		<path fill-rule="evenodd" clip-rule="evenodd" fill="#71D4FC" d="M2179.838,921.927c-0.251,0.202-0.678,0.618-0.73,0.575
			c-8.206-6.685-17.859-2.4-26.789-3.517c-2.773-0.347-3.733,1.886-4.269,4.025c-0.354,1.42-0.201,2.977-0.201,4.472
			c-0.008,63.446,0.043,126.893-0.107,190.337c-0.011,4.672,1.017,6.326,5.976,6.207c13.117-0.315,13.123-0.084,13.123-13.441
			c0-49.791-0.006-99.582,0.02-149.373c0.001-1.877-0.425-3.868,0.508-5.623c0.484,0.016,0.968,0.032,1.451,0.048
			c0,56.395,0,112.791,0,169.186c-1.204,2.562-3.72,2.655-5.956,2.877c-17.13,1.698-17.946,0.939-17.946-15.946
			c-0.001-61.645-0.011-123.289,0.026-184.933c0.002-2.393-0.834-5.089,1.618-6.958c1.694-2.013,3.772-2.997,6.489-2.954
			c6.285,0.1,12.574-0.029,18.86,0.061c2.646,0.038,5.379,0.117,6.875,2.949C2179.136,920.587,2179.487,921.257,2179.838,921.927z"
			/>
		<path fill-rule="evenodd" clip-rule="evenodd" fill="#74D5FC" d="M1742.952,1027.899c-5.869,2.092-7.014,3.545-5.541,8.707
			c0.633,2.219,0.161,4.282,0.234,6.365c0.169,4.81,2.244,7.72,6.785,8.994c0.988,0.277,2.17,0.58,1.718,1.857
			c-0.389,1.099-1.342,2.013-2.755,1.289c-1.83-0.939-3.644-1.555-5.744-0.811c-0.322,0.114-1.413-0.706-1.398-1.063
			c0.262-6.382-4.604-4.795-7.973-4.943c-4.224-0.186-6.792-1.665-6.349-6.219c0.433-4.448-1.847-5.247-5.699-5.218
			c-17.494,0.136-34.99,0.061-52.485,0.06c-8.444-0.001-8.798-0.093-6.688-8.291c0.922-3.582,0.603-7.869,3.919-10.654
			c1.905,3.55-0.041,6.775-0.912,10.061c-1.239,4.672-0.904,5.344,3.882,5.368c15.967,0.081,31.94-0.212,47.898,0.165
			c5.394,0.127,4.89-3.553,5.935-6.554c3.625,1.088,0.884,5.712,4.987,7.901c-2.123-6.863-1.991-13.167-4.318-19.192
			c0.903-0.963,2.466,1.649,3.227-0.06c0.602-1.354,0.535-3.144-0.864-4.091c-3.351-2.27-1.309-4.394,0.238-6.166
			c3.656-4.188,11.177-3.148,13.516,1.735c1.71-0.613,1.165-2.146,1.381-3.359
			C1738.998,1011.612,1740.898,1019.778,1742.952,1027.899z"/>
		<path fill-rule="evenodd" clip-rule="evenodd" fill="#78D6FC" d="M1956.803,917.856c0.008,50.057,0.014,100.113,0.021,150.169
			c-1.699-5.946-1.655-12.146-1.691-18.171c-0.25-41.151-0.132-82.305-0.124-123.458
			C1955.009,923.431,1954.728,920.392,1956.803,917.856z"/>
		<path fill-rule="evenodd" clip-rule="evenodd" fill="#74D5FC" d="M1767.933,1115.917c-3.958,3.198-8.615,3.211-13.352,3.002
			c-4.877-0.215-5.667-1.236-4.698-6.069c0.458-2.289,2.65-5.541-2.775-4.782c-1.843,0.257-0.971-1.536-0.502-2.463
			c1.31-2.581,6.589-4.349,9.321-3.18c2.627,1.125,6.543,3.573,7.934,5.229c-0.031-5.847-3.353-10.519-2.936-15.793
			C1763.883,1099.698,1766.074,1107.759,1767.933,1115.917z"/>
		<path fill-rule="evenodd" clip-rule="evenodd" fill="#74D5FC" d="M1981.841,1064.905c-1.854-1.563-1.99-3.676-1.989-5.892
			c0.031-47.049,0.045-94.099,0.061-141.148c1.701,1.654,0.977,3.779,0.979,5.689c0.044,42.156,0.005,84.312,0.076,126.466
			C1980.976,1054.983,1981.536,1059.944,1981.841,1064.905z"/>
		<path fill-rule="evenodd" clip-rule="evenodd" fill="#74D5FC" d="M1722.896,1055.917c-0.016,0.36-0.032,0.721-0.048,1.082
			c-1.801,0.265-3.601,0.754-5.402,0.759c-19.967,0.055-39.934,0.035-59.901,0.032c-1.323,0-2.683,0.138-3.806-0.815
			c3.365-0.571,6.953,0.99,10.165-1.059c1.547-0.915,3.246-0.459,4.867-0.463c16.417-0.038,32.834-0.037,49.251-0.002
			C1719.646,1055.455,1721.344,1055.026,1722.896,1055.917z"/>
		<path fill-rule="evenodd" clip-rule="evenodd" fill="#77D5FC" d="M1876.896,1106.92c-7.186,1.089-14.275,1.266-20.974-2.233
			c16.304,2.773,32.632,1.196,48.959,0.304c2.652-0.146,5.314-0.117,7.973-0.17c-1.88,2.19-5.003,0.228-6.98,2.089
			C1896.214,1107.708,1886.555,1107.684,1876.896,1106.92z"/>
		<path fill-rule="evenodd" clip-rule="evenodd" fill="#74D5FC" d="M2178.785,919.918c-1.858-1.548-3.938-2.1-6.4-2.037
			c-6.119,0.155-12.249,0.177-18.367-0.006c-2.769-0.083-5.193,0.479-7.455,1.988c0.874-2.83,3.151-3.846,5.746-3.895
			c6.801-0.128,13.618-0.247,20.404,0.099C2175.071,916.188,2178.313,916.227,2178.785,919.918z"/>
		<path fill-rule="evenodd" clip-rule="evenodd" fill="#74D5FC" d="M1745.688,1125.983c5.919-0.025,11.841-0.156,17.756-0.026
			c2.44,0.053,4.519-0.46,6.354-2.023c0.002,1.824-1.114,2.806-2.72,3.032C1759.896,1127.981,1752.691,1129.064,1745.688,1125.983z"
			/>
		<path fill-rule="evenodd" clip-rule="evenodd" fill="#76D5FC" d="M1857.833,1127.922c13.364,0.007,26.729,0.014,40.094,0.021
			c-2.759,1.608-5.805,0.788-8.691,0.848c-8.726,0.181-17.458,0.104-26.188,0.019
			C1861.301,1128.792,1859.387,1129.271,1857.833,1127.922z"/>
		<path fill-rule="evenodd" clip-rule="evenodd" fill="#74D5FC" d="M1607.827,1125.977c7.627-0.023,15.254-0.047,22.88-0.07
			C1623.089,1128.748,1615.462,1128.825,1607.827,1125.977z"/>
		<path fill-rule="evenodd" clip-rule="evenodd" fill="#74D5FC" d="M1733.834,1086.927c3.251,1.284,1.952,4.591,2.855,6.87
			c2.192,5.533,4.13,11.238,4.118,17.347C1737.648,1103.313,1735.996,1095.047,1733.834,1086.927z"/>
		<path fill-rule="evenodd" clip-rule="evenodd" fill="#74D5FC" d="M1698.96,915.889c-7.043-0.004-14.087-0.008-21.13-0.012
			C1684.875,913.214,1691.918,913.155,1698.96,915.889z"/>
		<path fill-rule="evenodd" clip-rule="evenodd" fill="#74D5FC" d="M2371.769,958.802c-0.721,8.497-2.878,16.58-6.937,24.116
			C2366.68,974.747,2368.97,966.701,2371.769,958.802z"/>
		<path fill-rule="evenodd" clip-rule="evenodd" fill="#74D5FC" d="M1633.835,1026.723c-1.053,8.428-2.83,16.646-7,24.172
			C1628.817,1042.736,1630.822,1034.583,1633.835,1026.723z"/>
		<path fill-rule="evenodd" clip-rule="evenodd" fill="#74D5FC" d="M1637.946,1103.017c0.764-6.282,1.36-12.612,5.062-18.073
			C1641.771,1091.094,1640.518,1097.241,1637.946,1103.017z"/>
		<path fill-rule="evenodd" clip-rule="evenodd" fill="#78D6FC" d="M1958.866,917.931c-0.694-0.022-1.388-0.044-2.082-0.065
			c0.589-0.543,1.16-1.537,1.771-1.562c6.783-0.276,13.609-1.484,20.32,0.625c-4.87,1.07-9.807,0.179-14.699,0.502
			C1962.403,917.548,1960.557,916.938,1958.866,917.931z"/>
		<path fill-rule="evenodd" clip-rule="evenodd" fill="#74D5FC" d="M2362.773,990.807c-0.666,5.995-1.176,12.036-5.028,17.094
			C2359.306,1002.169,2360.22,996.248,2362.773,990.807z"/>
		<path fill-rule="evenodd" clip-rule="evenodd" fill="#76D5FC" d="M1897.893,1127.972c1.229-2.812,3.76-1.99,5.913-2.043
			c3.07-0.074,6.145,0.015,9.219,0.033C1908.082,1127.397,1903.029,1127.999,1897.893,1127.972z"/>
		<path fill-rule="evenodd" clip-rule="evenodd" fill="#74D5FC" d="M1958.866,917.931c6.572-2.27,13.354-0.368,20.008-1.002
			c0.356,0.317,0.712,0.633,1.067,0.95C1972.916,917.896,1965.892,917.914,1958.866,917.931z"/>
		<path fill-rule="evenodd" clip-rule="evenodd" fill="#74D5FC" d="M2446.869,975.907c-3.678-5.029-4.168-11.014-5.062-16.876
			C2444.586,964.33,2445.271,970.255,2446.869,975.907z"/>
		<path fill-rule="evenodd" clip-rule="evenodd" fill="#74D5FC" d="M1733.897,995.923c-3.474-4.863-4.021-10.61-4.907-16.257
			C1731.719,984.755,1732.448,990.448,1733.897,995.923z"/>
		<path fill-rule="evenodd" clip-rule="evenodd" fill="#74D5FC" d="M1614.837,1093.829c0.361,4.867-0.968,9.221-3.961,13.072
			C1611.895,1102.452,1612.786,1097.964,1614.837,1093.829z"/>
		<path fill-rule="evenodd" clip-rule="evenodd" fill="#74D5FC" d="M1639.81,1005.663c0.153,4.849-1.266,9.234-3.922,13.252
			C1636.84,1014.392,1637.946,1009.915,1639.81,1005.663z"/>
		<path fill-rule="evenodd" clip-rule="evenodd" fill="#77D5FC" d="M1922.87,1121.916c0-5.289,0-10.579,0.001-15.868
			C1924.418,1111.337,1924.416,1116.627,1922.87,1121.916z"/>
		<path fill-rule="evenodd" clip-rule="evenodd" fill="#74D5FC" d="M1655.904,955.928c-0.686-0.011-1.371-0.022-2.057-0.033
			c1.063-3.313,0.908-6.989,2.975-10.003C1657.975,949.371,1654.791,952.453,1655.904,955.928z"/>
		<path fill-rule="evenodd" clip-rule="evenodd" fill="#7DD6FD" d="M1922.958,937.135c-0.005-5.125-0.011-10.248-0.016-15.373
			C1924.198,926.884,1924.194,932.009,1922.958,937.135z"/>
		<path fill-rule="evenodd" clip-rule="evenodd" fill="#74D5FC" d="M1644.952,1077.977c0.244-3.892-0.321-8.006,3.054-11.03
			C1647.221,1070.688,1646.759,1074.518,1644.952,1077.977z"/>
		<path fill-rule="evenodd" clip-rule="evenodd" fill="#74D5FC" d="M1617.861,1082.847c-0.26,3.886,0.347,8.014-3.069,11.021
			C1615.397,1090.078,1616.212,1086.346,1617.861,1082.847z"/>
		<path fill-rule="evenodd" clip-rule="evenodd" fill="#74D5FC" d="M2355.734,1015.699c-0.434,3.564,0.175,7.434-2.985,10.201
			C2353.348,1022.384,2353.896,1018.852,2355.734,1015.699z"/>
		<path fill-rule="evenodd" clip-rule="evenodd" fill="#74D5FC" d="M1728.79,1068.951c3.25,2.722,2.551,6.62,3.028,10.17
			C1730.002,1075.972,1729.522,1072.423,1728.79,1068.951z"/>
		<path fill-rule="evenodd" clip-rule="evenodd" fill="#74D5FC" d="M1624.857,1058.846c-0.608,3.469,0.238,7.38-3.056,10.031
			C1622.537,1065.448,1622.859,1061.892,1624.857,1058.846z"/>
		<path fill-rule="evenodd" clip-rule="evenodd" fill="#74D5FC" d="M1608.832,1114.693c-0.331,3.765-0.661,7.53-0.992,11.295
			C1605.487,1121.988,1607.125,1118.336,1608.832,1114.693z"/>
		<path fill-rule="evenodd" clip-rule="evenodd" fill="#74D5FC" d="M1649.84,970.751c-0.197,3.625-0.321,7.271-3.009,10.159
			C1647.508,977.427,1647.918,973.865,1649.84,970.751z"/>
		<path fill-rule="evenodd" clip-rule="evenodd" fill="#74D5FC" d="M1756.889,1076.913c-3.262-2.359-1.993-6.145-2.905-9.244
			C1756.227,1070.349,1755.87,1073.846,1756.889,1076.913z"/>
		<path fill-rule="evenodd" clip-rule="evenodd" fill="#74D5FC" d="M1726.849,1061.937c3.746,1.483,1.414,4.677,1.983,7.054
			C1727.506,1066.827,1727.175,1064.381,1726.849,1061.937z"/>
		<path fill-rule="evenodd" clip-rule="evenodd" fill="#74D5FC" d="M1647.967,1066.991c0.57-2.391-1.775-5.612,2.022-7.081
			C1649.553,1062.337,1649.386,1064.842,1647.967,1066.991z"/>
		<path fill-rule="evenodd" clip-rule="evenodd" fill="#74D5FC" d="M2455.883,1007.897c-3.285-1.609-1.732-4.592-2.005-7.057
			C2455.162,1003.017,2455.564,1005.446,2455.883,1007.897z"/>
		<path fill-rule="evenodd" clip-rule="evenodd" fill="#74D5FC" d="M2375.759,944.858c-0.308,2.455,1.266,5.452-2.032,7.045
			C2374.066,949.457,2374.494,947.037,2375.759,944.858z"/>
		<path fill-rule="evenodd" clip-rule="evenodd" fill="#77D5FC" d="M1921.766,1104.908c-2.987-0.018-5.975-0.035-8.961-0.053
			C1915.799,1103.538,1918.788,1103.25,1921.766,1104.908z"/>
		<path fill-rule="evenodd" clip-rule="evenodd" fill="#74D5FC" d="M2453.926,1000.875c-3.36-1.5-1.71-4.532-2.122-6.934
			C2453.284,996.016,2453.536,998.467,2453.926,1000.875z"/>
		<path fill-rule="evenodd" clip-rule="evenodd" fill="#74D5FC" d="M1760.949,1091.899c-2.741-2.147-1.934-5.198-2.041-8.016
			C1760.103,1086.423,1760.649,1089.13,1760.949,1091.899z"/>
		<path fill-rule="evenodd" clip-rule="evenodd" fill="#74D5FC" d="M2352.778,1025.863c-0.339,2.443,1.257,5.453-2.057,7.025
			C2351.158,1030.474,2351.438,1028.013,2352.778,1025.863z"/>
		<path fill-rule="evenodd" clip-rule="evenodd" fill="#74D5FC" d="M1633.953,1117.971c0.287-2.459-1.185-5.409,1.971-7.069
			C1635.591,1113.349,1635.224,1115.787,1633.953,1117.971z"/>
		<path fill-rule="evenodd" clip-rule="evenodd" fill="#74D5FC" d="M1744.948,1035.94c-2.078-2.339-2.133-5.183-2.022-8.07
			C1744.064,1030.444,1745.168,1033.025,1744.948,1035.94z"/>
		<path fill-rule="evenodd" clip-rule="evenodd" fill="#74D5FC" d="M1621.843,1068.835c-0.304,2.455,1.308,5.469-2.049,7.037
			C1620.167,1073.436,1620.545,1071.001,1621.843,1068.835z"/>
		<path fill-rule="evenodd" clip-rule="evenodd" fill="#74D5FC" d="M1747.986,1045.887c-3.292-1.527-1.702-4.528-2.092-6.931
			C1747.415,1041.018,1747.545,1043.5,1747.986,1045.887z"/>
		<path fill-rule="evenodd" clip-rule="evenodd" fill="#74D5FC" d="M1722.979,957.902c-3.277-1.543-1.694-4.542-2.083-6.95
			C1722.419,953.021,1722.59,955.494,1722.979,957.902z"/>
		<path fill-rule="evenodd" clip-rule="evenodd" fill="#74D5FC" d="M1724.982,964.9c-3.299-1.586-1.72-4.587-2.039-7.038
			C1724.17,960.049,1724.75,962.425,1724.982,964.9z"/>
		<path fill-rule="evenodd" clip-rule="evenodd" fill="#74D5FC" d="M1717.947,939.916c-3.228-1.622-1.698-4.596-2.004-7.05
			C1717.218,935.043,1717.629,937.467,1717.947,939.916z"/>
		<path fill-rule="evenodd" clip-rule="evenodd" fill="#74D5FC" d="M1626.866,1050.856c0.113,2.883,0.117,5.736-2.042,8.043
			C1624.695,1056.012,1625.708,1053.417,1626.866,1050.856z"/>
		<path fill-rule="evenodd" clip-rule="evenodd" fill="#74D5FC" d="M1646.862,980.864c-0.328,2.447,1.26,5.453-2.048,7.032
			C1645.046,985.421,1645.611,983.042,1646.862,980.864z"/>
		<path fill-rule="evenodd" clip-rule="evenodd" fill="#74D5FC" d="M1635.896,1018.902c-0.343,2.435,1.145,5.392-2.007,7.022
			C1634.557,1023.584,1635.227,1021.243,1635.896,1018.902z"/>
		<path fill-rule="evenodd" clip-rule="evenodd" fill="#74D5FC" d="M1728.941,978.942c-2.369-1.874-2.073-4.505-2.008-7.072
			C1728.141,974.075,1728.837,976.425,1728.941,978.942z"/>
		<path fill-rule="evenodd" clip-rule="evenodd" fill="#74D5FC" d="M1726.96,971.912c-2.429-1.848-2.081-4.49-2.015-7.053
			C1726.154,967.057,1726.733,969.434,1726.96,971.912z"/>
		<path fill-rule="evenodd" clip-rule="evenodd" fill="#74D5FC" d="M1749.979,1052.895c-2.473-1.832-2.096-4.486-2.032-7.05
			C1749.221,1048.023,1749.673,1050.438,1749.979,1052.895z"/>
		<path fill-rule="evenodd" clip-rule="evenodd" fill="#74D5FC" d="M1653.872,955.88c-0.318,2.445,1.187,5.405-1.993,7.041
			C1652.712,960.622,1652.422,958.004,1653.872,955.88z"/>
		<path fill-rule="evenodd" clip-rule="evenodd" fill="#74D5FC" d="M1751.947,1059.904c-2.41-1.858-2.077-4.493-2.002-7.057
			C1751.05,1055.075,1751.836,1057.393,1751.947,1059.904z"/>
		<path fill-rule="evenodd" clip-rule="evenodd" fill="#74D5FC" d="M1722.832,1056.96c4.318-0.74,4.27,2.053,4.038,4.993
			C1725.881,1060.001,1725.33,1057.694,1722.832,1056.96z"/>
		<path fill-rule="evenodd" clip-rule="evenodd" fill="#74D5FC" d="M1651.891,962.904c0.032,2.537,0.319,5.146-1.986,7.022
			C1650.063,967.443,1650.739,965.106,1651.891,962.904z"/>
		<path fill-rule="evenodd" clip-rule="evenodd" fill="#74D5FC" d="M1619.839,1075.833c0.095,2.571,0.446,5.215-2.01,7.062
			C1618.031,1080.408,1618.631,1078.035,1619.839,1075.833z"/>
		<path fill-rule="evenodd" clip-rule="evenodd" fill="#74D5FC" d="M1758.922,1083.904c-3.184-1.601-1.658-4.571-2.032-6.988
			C1758.361,1079.013,1758.069,1081.625,1758.922,1083.904z"/>
		<path fill-rule="evenodd" clip-rule="evenodd" fill="#74D5FC" d="M1642.967,1084.987c-0.08-2.568-0.437-5.215,2.018-7.058
			C1644.757,1080.408,1644.201,1082.794,1642.967,1084.987z"/>
		<path fill-rule="evenodd" clip-rule="evenodd" fill="#74D5FC" d="M1731.868,1079.902c2.343,1.879,2.054,4.502,1.991,7.06
			C1732.709,1084.747,1731.973,1082.413,1731.868,1079.902z"/>
		<path fill-rule="evenodd" clip-rule="evenodd" fill="#74D5FC" d="M1719.947,946.948c-2.374-1.867-2.071-4.5-2.022-7.062
			C1719.021,942.12,1719.835,944.433,1719.947,946.948z"/>
		<path fill-rule="evenodd" clip-rule="evenodd" fill="#74D5FC" d="M1704.874,918.931c-2.13-0.741-4.764-0.509-5.952-3.075
			C1701.079,916.546,1703.593,916.547,1704.874,918.931z"/>
		<path fill-rule="evenodd" clip-rule="evenodd" fill="#74D5FC" d="M1610.891,1106.877c-0.33,2.445,1.161,5.415-2.021,7.043
			C1609.543,1111.573,1610.217,1109.225,1610.891,1106.877z"/>
		<path fill-rule="evenodd" clip-rule="evenodd" fill="#74D5FC" d="M1740.856,1111.896c3.179,1.631,1.688,4.598,2.016,7.044
			C1742.2,1116.592,1741.528,1114.245,1740.856,1111.896z"/>
		<path fill-rule="evenodd" clip-rule="evenodd" fill="#74D5FC" d="M1644.852,987.853c0.068,2.564,0.429,5.211-2.022,7.054
			C1643.069,992.432,1643.621,990.044,1644.852,987.853z"/>
		<path fill-rule="evenodd" clip-rule="evenodd" fill="#74D5FC" d="M2357.774,1007.862c0.073,2.565,0.36,5.19-1.993,7.072
			C2355.98,1012.446,2356.588,1010.073,2357.774,1007.862z"/>
		<path fill-rule="evenodd" clip-rule="evenodd" fill="#74D5FC" d="M2457.799,1014.918c-2.303-1.896-2.035-4.504-1.949-7.06
			C2457.017,1010.068,2457.707,1012.411,2457.799,1014.918z"/>
		<path fill-rule="evenodd" clip-rule="evenodd" fill="#74D5FC" d="M2448.846,982.917c-2.386-1.86-2.058-4.492-2.004-7.045
			C2447.994,978.081,2448.685,980.423,2448.846,982.917z"/>
		<path fill-rule="evenodd" clip-rule="evenodd" fill="#74D5FC" d="M2439.836,950.92c-2.84-1.316-1.87-3.865-1.963-6.07
			C2439.168,946.666,2439.225,948.882,2439.836,950.92z"/>
		<path fill-rule="evenodd" clip-rule="evenodd" fill="#74D5FC" d="M2373.763,951.861c-0.11,2.183,0.835,4.7-1.909,6.054
			C2372.338,955.849,2372.534,953.691,2373.763,951.861z"/>
		<path fill-rule="evenodd" clip-rule="evenodd" fill="#74D5FC" d="M1631.909,1123.871c0.204-2.15-0.817-4.729,2.078-5.94
			C1633.255,1119.897,1633.497,1122.205,1631.909,1123.871z"/>
		<path fill-rule="evenodd" clip-rule="evenodd" fill="#74D5FC" d="M1642.86,994.86c-0.119,2.177,0.826,4.688-1.899,6.045
			C1641.366,998.819,1641.647,996.693,1642.86,994.86z"/>
		<path fill-rule="evenodd" clip-rule="evenodd" fill="#74D5FC" d="M1753.84,1065.902c-0.649-0.329-1.298-0.658-1.948-0.987v-0.002
			c0.011-1.682,0.021-3.363,0.032-5.046C1752.563,1061.878,1753.201,1063.89,1753.84,1065.902z"/>
		<path fill-rule="evenodd" clip-rule="evenodd" fill="#74D5FC" d="M1735.885,1002.918c-2.824-1.4-1.827-3.974-1.908-6.219
			C1734.613,998.772,1735.249,1000.846,1735.885,1002.918z"/>
		<path fill-rule="evenodd" clip-rule="evenodd" fill="#74D5FC" d="M1769.839,1122.889c-1.939-1.674-2.094-3.884-1.865-6.209
			C1769.056,1118.61,1769.918,1120.608,1769.839,1122.889z"/>
		<path fill-rule="evenodd" clip-rule="evenodd" fill="#74D5FC" d="M1635.994,1110.143c-0.228-2.333-0.087-4.556,1.884-6.223
			C1637.871,1106.183,1637.11,1108.217,1635.994,1110.143z"/>
		<path fill-rule="evenodd" clip-rule="evenodd" fill="#74D5FC" d="M1742.855,1118.917c2.874,1.315,1.851,3.903,1.993,6.109
			C1743.508,1123.211,1743.415,1120.988,1742.855,1118.917z"/>
		<path fill-rule="evenodd" clip-rule="evenodd" fill="#74D5FC" d="M1660.857,931.867c-0.117,2.191,0.833,4.725-1.947,6.061
			C1659.436,935.868,1659.564,933.68,1660.857,931.867z"/>
		<path fill-rule="evenodd" clip-rule="evenodd" fill="#74D5FC" d="M2450.721,988.9c-2.688-1.356-1.741-3.858-1.893-6.013
			C2449.971,984.729,2450.319,986.823,2450.721,988.9z"/>
		<path fill-rule="evenodd" clip-rule="evenodd" fill="#74D5FC" d="M1715.977,932.905c-2.389-0.883-2.067-2.932-2.078-4.836
			C1715.344,929.358,1715.411,931.238,1715.977,932.905z"/>
		<path fill-rule="evenodd" clip-rule="evenodd" fill="#74D5FC" d="M1677.869,915.837c-0.966,2.533-3.126,2.072-5.116,2.039
			C1674.26,916.701,1676.036,916.196,1677.869,915.837z"/>
		<path fill-rule="evenodd" clip-rule="evenodd" fill="#74D5FC" d="M1668.826,920.642c-0.482,1.687-1.545,2.781-3.272,3.2
			C1666.081,922.2,1667.2,921.161,1668.826,920.642z"/>
		<path fill-rule="evenodd" clip-rule="evenodd" fill="#74D5FC" d="M2440.877,955.959c-1.766-1.391-0.834-3.344-1.055-5.058
			C2441.171,952.379,2440.744,954.228,2440.877,955.959z"/>
		<path fill-rule="evenodd" clip-rule="evenodd" fill="#7DD6FD" d="M1921.76,919.94c-1.658-0.255-3.571,0.664-4.909-1.067
			C1918.531,919.022,1920.452,918.073,1921.76,919.94z"/>
		<path fill-rule="evenodd" clip-rule="evenodd" fill="#74D5FC" d="M1662.824,927.724c0.19,1.804,0.015,3.432-1.999,4.183
			C1661.104,930.327,1661.739,928.918,1662.824,927.724z"/>
		<path fill-rule="evenodd" clip-rule="evenodd" fill="#6BD2FC" d="M2379.813,1055.916c-2.944,0-5.889,0-9.152,0
			c0.973-1.456,2.007-0.972,2.839-0.974c21.882-0.032,43.764-0.036,65.646-0.004c1.589,0.002,3.362-0.548,4.66,0.976
			C2422.474,1055.915,2401.144,1055.916,2379.813,1055.916z"/>
		<path fill-rule="evenodd" clip-rule="evenodd" fill="#6AD2FC" d="M2292.686,921.265c0,66.104,0,132.21,0,198.314
			c-0.167,0.001-0.334,0.001-0.5,0.001c0-66.173,0-132.348,0-198.521C2292.352,921.128,2292.519,921.197,2292.686,921.265z"/>
		<path fill-rule="evenodd" clip-rule="evenodd" fill="#6DD3FB" d="M2271.805,918.566c0,55.693,0,111.387,0,167.08
			c-0.214,0-0.427,0-0.64,0c0-55.651,0-111.303,0-166.954C2271.378,918.65,2271.591,918.608,2271.805,918.566z"/>
		<path fill-rule="evenodd" clip-rule="evenodd" fill="#FEFEFE" d="M1323.46,1034.996c-8.821-0.001-17.644-0.082-26.463,0.04
			c-3.396,0.048-4.254-0.729-3.233-4.34c8.342-29.498,16.468-59.057,24.624-88.606c0.865-3.133,2.429-6.003,5.837-5.839
			c3.474,0.166,5.038,3.061,5.945,6.396c5.957,21.902,12.023,43.776,18.093,65.648c2.039,7.344,4.118,14.678,6.325,21.973
			c1.065,3.523,0.106,4.851-3.667,4.782C1341.771,1034.883,1332.614,1034.996,1323.46,1034.996z"/>
		<path fill-rule="evenodd" clip-rule="evenodd" fill="#6BD2FC" d="M1359.609,1055.777c-23.777,0-47.554,0-71.331,0
			c-0.001-0.167-0.002-0.334-0.003-0.501c23.845,0,47.691,0,71.536,0C1359.744,1055.443,1359.676,1055.61,1359.609,1055.777z"/>
		<path fill-rule="evenodd" clip-rule="evenodd" fill="#6BD2FC" d="M2076.765,917.872c0.636,0.423,2.654-0.466,1.87,1.094
			c-1.317,2.617-0.736,5.222-0.74,7.798c-0.061,44.16-0.044,88.318-0.044,132.478c0,1.805,0,3.609,0,5.413
			c-0.353,0-0.706,0-1.06-0.001c0-48.935,0-97.87,0-146.807L2076.765,917.872z"/>
		<path fill-rule="evenodd" clip-rule="evenodd" fill="#69D1FD" d="M1797.151,1041.647c0-13.554,0-27.106,0-40.66
			c0.167,0,0.333,0.001,0.5,0.001c0,13.58,0,27.158,0,40.736C1797.484,1041.699,1797.318,1041.672,1797.151,1041.647z"/>
		<path fill-rule="evenodd" clip-rule="evenodd" fill="#6AD1FC" d="M1876.896,1106.92c9.659-0.004,19.318-0.007,28.978-0.011
			c-2.142,1.905-4.755,1.044-7.084,0.92C1891.494,1107.441,1884.105,1109.165,1876.896,1106.92z"/>
		<path fill-rule="evenodd" clip-rule="evenodd" fill="#FEFEFE" d="M1717.78,1027.013c0.153,0.815,0.178,1.682,0.48,2.438
			c1.625,4.07,0.567,5.66-4.068,5.609c-17.471-0.189-34.945-0.183-52.416,0.009c-4.218,0.046-5.26-1.132-3.934-5.121
			c1.298-3.908,2.11-7.977,3.135-11.975l-0.034,0.003c0.715-2.671,0.916-5.472,2.052-8.035l-0.036,0.052
			c2.186-8.06,3.893-16.259,6.953-24.065l-0.004,0.006c1.779-8.817,4.149-17.472,7.104-25.967l-0.045,0.039
			c0.679-2.351,0.553-4.928,1.991-7.064l-0.023,0.036c1.149-3.941,1.555-8.039,3.056-11.938c1.285-3.337,3.121-5.866,6.706-5.438
			c3.679,0.438,5.532,3.258,5.694,7.01c0.022,0.517,0.182,0.965,0.462,1.385l-0.035-0.04c2.019,3.099,1.749,6.872,2.998,10.199
			c-0.088,0.261-0.071,0.516,0.052,0.762c1.399,2.15,1.264,4.732,1.99,7.07l-0.032-0.032c1.838,2.017,1.144,4.756,2.009,7.05
			l-0.043-0.04c1.791,4.609,3.158,9.337,4.015,14.208c0.108,1.306-0.289,2.713,0.76,3.833c2.076,2.276,1.269,5.386,2.301,7.963
			l-0.024-0.03c3.19,8.099,5.146,16.545,7.035,25.011l-0.014-0.021c1.763,2.046,1.096,4.771,1.975,7.064L1717.78,1027.013z"/>
		<path fill-rule="evenodd" clip-rule="evenodd" fill="#74D5FC" d="M1650.906,1054.917c-2.285,2.127-4.735,4.109-6.807,6.428
			c-1.927,2.155-3.457,4.662-0.798,7.465c0.665,0.7,1.591,1.444,0.105,2.271c-0.884,0.493-1.589,0.233-2.133-0.537
			c-0.476-0.677-0.876-1.406-1.355-2.08c-1.487-2.09-4.125-3.135-6.986-2.836c-0.306,0.031-0.661-0.091-0.945-0.236
			c-0.426-0.218-0.81-0.519-1.663-1.084c4.684-1.51,8.247-3.508,4.956-8.947c-0.435-0.719,0.208-1.625,1.066-1.969
			c1.204-0.481,1.893,0.362,2.403,1.215c1.383,2.311,3.437,0.96,4.89,0.564c1.917-0.521,1.437-2.874,1.558-4.369
			c0.18-2.225-1.896-1.727-3.291-1.886c-6.144-2.364-8.453-7.887-5.677-13.879c0.55-1.188,0.579-2.159,0.121-3.31
			c-1.8-4.52,1.734-8.173,2.274-12.354c0.234-1.816,4.631-1.786,5.22-4.938c0.074-0.394,1.508,0.3,1.538,1.239
			c0.069,2.215,1.676,1.96,3.147,2.284c3.883,0.853,7.083,1.019,7.79-4.235c0.14-1.039,0.358-3.137,2.385-3.378
			c1.583,5.602-1.258,9.259-5.439,12.266c-0.862,0.619-2.326,0.455-1.872,2.278c1.734,6.957-0.211,14.047,0.622,21.004
			C1652.402,1049.125,1648.908,1051.654,1650.906,1054.917L1650.906,1054.917z"/>
		<path fill-rule="evenodd" clip-rule="evenodd" fill="#74D5FC" d="M1694.852,943.995c-1.278-0.886-0.62-2.508-1.344-3.576
			c-1.38-2.035-2.722-4.482-5.586-4.183c-2.59,0.271-4.391,1.926-5.173,4.619c-1.182,4.066-2.535,8.082-3.815,12.12
			c-0.18-4.91,1.247-9.468,3.078-13.93c1.609-3.921,4.921-4.522,8.769-4.557c-1.979-0.141-3.372-1.4-5.563-1.306
			c-6.541,0.282-5.664,5.809-5.947,9.203c-0.377,4.524-3.484,6.266-6.049,8.475c-2.968,2.557-2.61-1.085-3.368-2.502
			c-1.339,0.396-0.898,2.47-2.661,2.564c-3.125,0.167-3.394,1.5-1.251,3.632c0.594,0.59,1.073,1.478,0.044,2.054
			c-0.817,0.459-1.438-0.134-2.1-0.756c-3.949-3.712-4.927-11.625-1.548-16.02c1.14-1.482,1.438-2.667,1.368-4.446
			c-0.118-3.022,4.091-5.667,6.84-4.272c2.28,1.157,4.553,0.91,6.802,0.642c1.657-0.198,2.551-1.685,2.065-3.333
			c-0.41-1.39-1.586-1.559-2.779-0.67c-1.944,1.448-2.559-0.223-3.894-2.062c5.355,1.251,7.157-1.303,7.226-5.733
			c0.022-1.465,0.978-1.996,2.319-1.997c4.592-0.003,9.185-0.001,13.847-0.001c-0.954,5.297-1.862,10.179,0.966,14.781
			c0.371,0.603,0.668,1.614,0.021,1.688c-6.179,0.711-2.465,4.414-2.241,7.07C1694.949,942.326,1694.865,943.163,1694.852,943.995z"
			/>
		<path fill-rule="evenodd" clip-rule="evenodd" fill="#74D5FC" d="M1633.499,1107.03c-2.369,0.043-3.062-4.323-4.275-2.094
			c-0.821,1.509-4.073,4.872-0.368,7.634c1.643,1.225,4.535,2.78,1.406,5.376c-2.63,2.182-3.655-0.113-4.928-1.937
			c-1.701-2.437-3.729-4.648-5.374-7.117c-1.685-2.531-1.093-2.408,0.526-5.059c0.808-1.322,4.685-3.857,0.213-5.85
			c-0.661-0.294-1.092-0.407-0.455-1.264c3.797-5.109,1.766-10.995,1.711-16.479c-0.036-3.609,2.137-6.115,2.723-9.286
			c0.072-0.394,1.139-0.959,1.628-0.861c3.139,0.626,5.22,3.274,8.267,4.318c3.219,1.103,3.333,3.469,2.852,7.031
			c-0.412,3.044-0.11,6.688,0.199,10.067C1638.124,1096.986,1635.629,1102.109,1633.499,1107.03z"/>
		<path fill-rule="evenodd" clip-rule="evenodd" fill="#74D5FC" d="M1663.903,999.922c-1.321,3.988-3.525,6.176-8.034,4.205
			c-0.848-0.371-2.025-0.381-2.941-0.141c-4.007,1.048-5.949,0.73-3.623-4.078c2.021-4.177-2.993-2.05-3.953-4.028
			c1.332-1.358,1.905-3.089,4.028-4.308c3.163-1.813,1.245-5.644,1.313-8.607c0.038-1.608-0.573-3.222-0.75-4.848
			c-0.109-1.007,0.287-2.582,1.183-2.426c5.688,0.986,3.415-2.268,3.209-5.089c-0.171-2.345,2.409-3.804,3.636-5.746
			c2.388-3.778,3.657-0.158,5.279,0.908c2.316,1.524,2.716-0.669,3.651-1.838c2.601,2.282,2.922,7.979,0.073,9.689
			c-1.994,1.197-1.301,2.244-1.526,3.846c-0.818,5.813,2.478,11.881-1.28,17.547
			C1663.388,996.187,1663.957,998.261,1663.903,999.922z"/>
		<path fill-rule="evenodd" clip-rule="evenodd" fill="#74D5FC" d="M1751.892,1064.915c0.38,4.875-0.301,9.757,2.575,14.445
			c1.081,1.763-0.686,5.273-1.211,8.319c1.322-0.397,2.313-0.696,3.468-1.043c-0.064,2.349-0.667,4.194-2.926,4.179
			c-4.172-0.03-8.25,0.6-12.368,1.045c-4.676,0.505-5.236-4.01-5.189-6.374c0.12-6.02-3.442-11.398-2.414-17.431
			c0.159-0.931-0.228-1.537-1.398-1.477c-1.484,0.077-1.542-0.959-1.25-2.028c0.947-3.466,5.264-6.03,8.86-5.692
			c4.814,0.451,8.959,1.965,11.854,6.055V1064.915z"/>
		<path fill-rule="evenodd" clip-rule="evenodd" fill="#74D5FC" d="M1723.268,984.951c1.559,1.425,2.447-1.242,3.309,0.017
			c0.806,1.178-0.381,2.135-1.211,2.925c-3.517,3.344-10.346,4.717-14.054,1.723c-4.285-3.459-4.693-9.063-4.159-14.168
			c0.284-2.713,0.433-4.625-1.7-6.593c-1.571-1.45,1.179-6.983,3.872-8.183c2.835-1.265,6.701-1.094,7.224-5.549
			c0.105-0.897,1.527-1.423,2.498-0.798c1.078,0.693,0.781,1.697-0.04,2.496c-0.773,0.752-1.518,1.809-0.488,2.508
			c5.772,3.92,3.764,9.943,4.272,15.268c0.088,0.923-0.862,2.247,0.188,2.753C1727.822,979.69,1725.279,982.517,1723.268,984.951z"
			/>
		<path fill-rule="evenodd" clip-rule="evenodd" fill="#6BD2FC" d="M1722.896,1055.917c-19.664,0-39.328-0.001-58.992-0.001
			c-4.314-0.569-8.808,1.193-12.998-0.999h-0.001c1.667-0.001,3.333-0.002,5-0.002c3-2.049,5.999-1.664,8.999,0
			c19.19-0.001,38.381-0.003,57.57,0.01c0.444,0,0.889,0.176,1.333,0.27C1723.503,1055.434,1723.199,1055.675,1722.896,1055.917z"/>
		<path fill-rule="evenodd" clip-rule="evenodd" fill="#74D5FC" d="M1706.876,938.547c-1.315,3.673,0.719,4.486,2.344,5.568
			c0.673,0.448,1.512,0.938,1.197,1.917c-0.347,1.079-1.34,0.885-2.058,0.566c-2.264-1.005-3.472-0.528-3.492,2.125
			c-0.008,1.022-0.273,2.223-1.665,1.611c-1.177-0.516-2.491-1.468-1.813-3.043c2.031-4.717,3.326-9.4,0.768-14.368
			c-0.184-0.358,0.247-1.4,0.66-1.62c0.794-0.423,1.981-0.022,1.837,0.879C1704.207,934.989,1707.316,936.795,1706.876,938.547z"/>
		<path fill-rule="evenodd" clip-rule="evenodd" fill="#74D5FC" d="M1715.878,1019.949c-2.882-8.186-5.007-16.585-7.035-25.011
			c2.633,0.94,1.762,3.582,2.312,5.252c2.061,0.944,1.738-3.534,3.888-1.352c1.6,1.624,0.55,2.989-0.955,4.041
			c-1.518,1.062-1.719,2.942-0.895,3.929C1716.515,1010.786,1714.79,1015.627,1715.878,1019.949z"/>
		<path fill-rule="evenodd" clip-rule="evenodd" fill="#74D5FC" d="M1702.128,962.756c-2.458-6.567,4.142-7.755,7.084-11.243
			C1707.946,956.055,1706.622,960.559,1702.128,962.756z"/>
		<path fill-rule="evenodd" clip-rule="evenodd" fill="#74D5FC" d="M1677.012,959.965c-1.895,8.785-4.317,17.425-7.104,25.966
			c-0.229-6.57,2-12.66,4.278-18.588C1675.121,964.908,1673.372,961.317,1677.012,959.965z"/>
		<path fill-rule="evenodd" clip-rule="evenodd" fill="#74D5FC" d="M1664.903,1054.915c-3,0-6,0-8.999,0
			c0.602-2.351-1.852-8.873,4.631-3.175C1661.78,1052.833,1665.569,1050.703,1664.903,1054.915z"/>
		<path fill-rule="evenodd" clip-rule="evenodd" fill="#74D5FC" d="M1669.912,985.927c-2.132,8.075-3.682,16.318-6.953,24.064
			c-0.271-3.411,1.559-6.625,0.944-10.069c3.082-2.818,2.563-7.011,3.898-10.497
			C1668.327,988.054,1668.363,986.605,1669.912,985.927z"/>
		<path fill-rule="evenodd" clip-rule="evenodd" fill="#74D5FC" d="M1631.701,1047c3.807,3.104-0.125,7.396,2.522,10.226
			c-0.359,0.301-0.673,0.735-1.086,0.872c-0.809,0.269-0.951-0.319-1.249-0.984C1630.467,1053.939,1629.893,1050.786,1631.701,1047z
			"/>
		<path fill-rule="evenodd" clip-rule="evenodd" fill="#74D5FC" d="M1742.332,1039.208c-1.66,1.471,3.531,4.54-0.702,5.142
			c-2.341,0.332-1.618-3.14-2.272-4.841c-0.631-1.644,0.833-3.077,2.285-3.088
			C1743.502,1036.406,1742.626,1037.977,1742.332,1039.208z"/>
		<path fill-rule="evenodd" clip-rule="evenodd" fill="#74D5FC" d="M1752.619,1122.293c3.823-0.423,7.656-1.05,11.359,1.271
			c-3.793,0-7.586,0-11.38,0C1752.605,1123.141,1752.612,1122.717,1752.619,1122.293z"/>
		<path fill-rule="evenodd" clip-rule="evenodd" fill="#74D5FC" d="M1705.806,983.171c-1.978-4.555-3.177-9.331-4.015-14.208
			C1704.892,973.201,1706.255,977.93,1705.806,983.171z"/>
		<path fill-rule="evenodd" clip-rule="evenodd" fill="#74D5FC" d="M1659.779,1044.336c-0.171,0.962-0.739,1.584-1.662,1.076
			c-1.268-0.697-3.686,0.009-3.53-2.49c0.064-1.038,0.798-1.633,2.115-1.202C1658.142,1042.191,1659.586,1042.472,1659.779,1044.336
			z"/>
		<path fill-rule="evenodd" clip-rule="evenodd" fill="#74D5FC" d="M1761.104,1100.786c-2.812-1.219-5.1-1.818-5.38-4.178
			c-0.263-2.217,2.006-2.424,3.15-0.26C1759.481,1097.497,1760.043,1098.668,1761.104,1100.786z"/>
		<path fill-rule="evenodd" clip-rule="evenodd" fill="#74D5FC" d="M1666.798,963.917c-0.627-0.336-0.94-0.454-1.193-0.65
			c-1.438-1.111-3.995-0.939-4.195-3.427c-0.061-0.757,0.864-0.868,1.506-0.717C1665.436,959.716,1667.716,960.55,1666.798,963.917z
			"/>
		<path fill-rule="evenodd" clip-rule="evenodd" fill="#74D5FC" d="M1660.752,956.619c-0.143,1.054-0.666,1.988-1.813,1.951
			c-1.355-0.045-2.789-0.586-2.895-2.154c-0.083-1.241,1.346-1.17,2.174-1.347C1659.387,954.819,1660.604,954.909,1660.752,956.619z
			"/>
		<path fill-rule="evenodd" clip-rule="evenodd" fill="#74D5FC" d="M1673.498,957.116c0.914,2.725-2.204,3.922-1.963,6.417
			C1669.248,960.479,1671.725,958.875,1673.498,957.116z"/>
		<path fill-rule="evenodd" clip-rule="evenodd" fill="#74D5FC" d="M1614.187,1108.278c1.129,0.397,2.117,1.135,2.295,2.271
			c0.209,1.331-1.123,1.285-1.996,1.541c-1.505,0.442-1.559-0.597-1.549-1.6C1612.946,1109.549,1612.825,1108.482,1614.187,1108.278
			z"/>
		<path fill-rule="evenodd" clip-rule="evenodd" fill="#74D5FC" d="M1697.815,954.153c-1.875-3.142-2.233-6.73-2.998-10.199
			C1698.01,946.709,1697.377,950.588,1697.815,954.153z"/>
		<path fill-rule="evenodd" clip-rule="evenodd" fill="#74D5FC" d="M1708.867,994.968c-1.33-2.492-1.72-5.254-2.299-7.963
			c0.775,0.639,1.552,1.279,2.33,1.918C1708.887,990.939,1708.877,992.954,1708.867,994.968z"/>
		<path fill-rule="evenodd" clip-rule="evenodd" fill="#74D5FC" d="M1662.995,1009.94c0.039,2.863-0.896,5.477-2.052,8.035
			C1660.839,1015.096,1660.82,1012.238,1662.995,1009.94z"/>
		<path fill-rule="evenodd" clip-rule="evenodd" fill="#74D5FC" d="M1717.838,1026.993c-1.201-2.204-1.663-4.612-1.975-7.064
			C1719.06,1021.574,1717.559,1024.531,1717.838,1026.993z"/>
		<path fill-rule="evenodd" clip-rule="evenodd" fill="#74D5FC" d="M1701.834,969.003c-1.224-2.192-1.747-4.583-2.009-7.05
			c0.69,0.324,1.382,0.649,2.073,0.974C1701.877,964.952,1701.855,966.978,1701.834,969.003z"/>
		<path fill-rule="evenodd" clip-rule="evenodd" fill="#74D5FC" d="M1641.93,1048.847c-0.222,1.612-0.677,2.51-1.795,2.662
			c-0.802,0.108-1.173-0.615-1.029-1.293C1639.442,1048.628,1640.843,1049.084,1641.93,1048.847z"/>
		<path fill-rule="evenodd" clip-rule="evenodd" fill="#74D5FC" d="M1699.857,961.985c-1.167-2.214-1.852-4.565-1.99-7.069
			C1700.218,956.797,1699.931,959.421,1699.857,961.985z"/>
		<path fill-rule="evenodd" clip-rule="evenodd" fill="#74D5FC" d="M1678.958,952.94c-0.263,2.467-0.839,4.847-1.991,7.063
			C1676.87,957.435,1676.545,954.802,1678.958,952.94z"/>
		<path fill-rule="evenodd" clip-rule="evenodd" fill="#74D5FC" d="M1700.638,922.833c1.962,1.334,2.973,2.021,5.092,3.462
			C1702.889,926.107,1701.758,925.641,1700.638,922.833z"/>
		<path fill-rule="evenodd" clip-rule="evenodd" fill="#74D5FC" d="M1699.954,944.076c-0.756,0.226-1.216,0.534-1.533,0.425
			c-0.803-0.278-1.352-0.909-0.971-1.808c0.087-0.205,0.918-0.344,1.186-0.171C1699.104,942.824,1699.4,943.391,1699.954,944.076z"
			/>
		<path fill-rule="evenodd" clip-rule="evenodd" fill="#74D5FC" d="M1648.211,1009.664c-0.285-0.195-0.82-0.362-0.918-0.67
			c-0.227-0.701,0.223-1.28,0.881-1.421c0.311-0.066,0.923,0.286,1.06,0.598C1649.567,1008.929,1648.932,1009.272,1648.211,1009.664
			z"/>
		<path fill-rule="evenodd" clip-rule="evenodd" fill="#74D5FC" d="M1729.855,995.124c-0.674,0.199-1.125,0.491-1.412,0.376
			c-0.352-0.142-0.567-0.625-0.841-0.959c0.378-0.15,0.788-0.469,1.127-0.405S1729.336,994.643,1729.855,995.124z"/>
		<path fill-rule="evenodd" clip-rule="evenodd" fill="#FEFEFE" d="M2393.82,966.922c0.145-0.292,0.193-0.599,0.147-0.922
			c0.935-5.886,2.72-11.528,4.902-17.056l-0.026,0.032c0.91-2.618,0.18-5.656,2.053-8.028l-0.033,0.052
			c1.113-2.781,2.371-5.52,5.946-5.521s4.83,2.742,5.947,5.519l-0.032-0.05c3.363,9.705,5.684,19.712,8.41,29.597
			c0.951,3.447,2.361,6.801,2.643,10.423l-0.024-0.03c2.487,5.783,3.725,11.914,5.024,18.027l-0.021-0.027
			c1.786,2.036,1.113,4.765,1.989,7.058l-0.043-0.04c2.875,8.194,5.095,16.574,7.056,25.027l-0.034-0.047
			c1.659,3.498,0.26,4.951-3.311,4.957c-18.384,0.034-36.769,0.05-55.152-0.02c-2.491-0.01-4.972-0.312-3.438-3.954l-0.004,0.006
			c0.834-2.627,0.883-5.455,2.041-7.999l-0.02,0.034c1.739-5.99,2.63-12.218,5.056-18.015l-0.036,0.039
			c0.724-2.335,0.551-4.927,2.018-7.05l-0.027,0.041c0.983-3.687,1.208-7.583,3.056-11.03l-0.037,0.05
			c0.906-2.282,0.138-5.047,2.031-7.044l-0.037,0.039C2390.735,976.176,2392.092,971.497,2393.82,966.922z"/>
		<path fill-rule="evenodd" clip-rule="evenodd" fill="#74D5FC" d="M2455.541,1016.706c-3.502-1.271-5.687,0.016-7.864,1.643
			c-1.447,1.082-3.128,1.137-5.066,1.17c-5.566,0.095-6.782-3.274-7.71-7.638c-0.878-4.122-2.375-8.163-3.577-12.117
			c-0.926-3.045-0.185-7.816,0.706-11.711c0.234-1.021,1.148-0.595,2.019-0.365c3.191,0.844,5.491-1.123,4.016-3.671
			c-2.513-4.341,2.745-5.401,2.991-8.498c0.051-0.635,1.829-0.747,2.507,0.261c0.589,0.875,1.778,2.124,0.169,2.919
			c-3.271,1.616-1.283,2.587-0.004,4.349c5.406,7.444,8.872,15.54,6.473,25.028c-0.445,1.76-0.059,2.852,1.437,3.756
			C2453.166,1012.758,2454.734,1013.697,2455.541,1016.706z"/>
		<path fill-rule="evenodd" clip-rule="evenodd" fill="#74D5FC" d="M2375.489,1022.193c-1.405,0-2.739-0.067-3.375-1.044
			c-1.239-1.899-2.934-2.87-4.334-0.936c-1.758,2.428,2.847,0.861,2.243,3.338c-2.433,0.928-5.406-0.207-7.975,1.074
			c-0.768,0.383-1.659,0.072-1.988-0.903c-0.278-0.824-0.296-1.703,0.418-2.301c3.846-3.219,2.747-8.077,2.954-11.91
			c0.286-5.303,0.208-10.554,1.101-15.895c0.763-4.559,3.744-5.592,7.099-6.255c1.479-0.292,3.179-0.065,4.812-0.314
			c1.881-0.287,3.873,0.851,3.062,2.729c-1.772,4.099,1.115,7.829,0.303,11.685c-1.147,5.442,0.147,11.544-3.83,16.195
			C2374.617,1019.248,2376.051,1020.481,2375.489,1022.193z"/>
		<path fill-rule="evenodd" clip-rule="evenodd" fill="#74D5FC" d="M2375.823,1031.92c-0.218,2.446,1.063,3.105,3.309,3.1
			c18.443-0.049,36.887-0.077,55.33,0.021c3.209,0.018,3.53-1.662,3.263-4.104c2.34,1.732,2.502,4.632,3.415,7.016
			c1.071,2.794-1.19,3.494-3.637,3.815c1.567-4.799,1.567-4.839-3.478-4.844c-18.429-0.018-36.857-0.003-55.285-0.015
			c-1.629-0.001-3.508,0.375-4.475-1.406C2373.354,1033.825,2374.309,1032.686,2375.823,1031.92z"/>
		<path fill-rule="evenodd" clip-rule="evenodd" fill="#74D5FC" d="M2423.777,980.969c-4.281-13.175-7.859-26.544-11.053-40.021
			c3.295,1.67,0.594,6.41,4.084,7.979c-0.078,5.682,2.435,10.792,3.582,16.203C2421.51,970.413,2424.208,975.357,2423.777,980.969z"
			/>
		<path fill-rule="evenodd" clip-rule="evenodd" fill="#74D5FC" d="M2437.758,1030.984c-2.975-8.167-5.205-16.544-7.055-25.027
			c3.743,1.451,2.107,5.274,3.033,7.83C2435.724,1019.267,2438.027,1024.888,2437.758,1030.984z"/>
		<path fill-rule="evenodd" clip-rule="evenodd" fill="#74D5FC" d="M2447.781,1025.128c-0.041,1.167,0.045,2.627-1.575,2.55
			c-1.7-0.081-3.314-0.755-3.307-2.924c0.005-1.517,0.772-2.64,2.35-2.646C2447.131,1022.101,2447.712,1023.468,2447.781,1025.128z"
			/>
		<path fill-rule="evenodd" clip-rule="evenodd" fill="#74D5FC" d="M2398.87,948.945c-1.321,5.776-2.645,11.55-4.903,17.056
			c-3.061-2.887,1.052-4.888,1.198-7.511C2395.339,955.358,2395.897,951.43,2398.87,948.945z"/>
		<path fill-rule="evenodd" clip-rule="evenodd" fill="#74D5FC" d="M2428.777,998.966c-2.229-5.855-3.732-11.911-5.023-18.027
			C2427.631,986.334,2428.396,992.597,2428.777,998.966z"/>
		<path fill-rule="evenodd" clip-rule="evenodd" fill="#74D5FC" d="M2382.896,1005.947c-1.219,6.136-2.506,12.252-5.057,18.015
			C2378.656,1017.712,2379.221,1011.392,2382.896,1005.947z"/>
		<path fill-rule="evenodd" clip-rule="evenodd" fill="#74D5FC" d="M2412.757,940.999c-4.859-6.799-6.827-6.799-11.894,0.001
			c0.096-4.031,2.254-6.126,6.192-6.016C2410.766,935.087,2412.73,937.217,2412.757,940.999z"/>
		<path fill-rule="evenodd" clip-rule="evenodd" fill="#74D5FC" d="M2393.82,966.922c-0.811,4.833-2.116,9.526-3.957,14.069
			C2389.546,975.842,2391.164,971.236,2393.82,966.922z"/>
		<path fill-rule="evenodd" clip-rule="evenodd" fill="#74D5FC" d="M2453.223,1024.409c-0.872-0.379-2.158-0.422-1.986-1.78
			c0.143-1.127,1.083-1.604,2.178-1.585c0.895,0.016,1.756,0.445,1.75,1.365C2455.158,1023.51,2454.231,1024.073,2453.223,1024.409z
			"/>
		<path fill-rule="evenodd" clip-rule="evenodd" fill="#74D5FC" d="M2387.906,987.947c-0.757,3.75-1.309,7.555-3.056,11.03
			C2384.855,995.019,2385.055,991.116,2387.906,987.947z"/>
		<path fill-rule="evenodd" clip-rule="evenodd" fill="#74D5FC" d="M2400.896,940.949c-0.4,2.749-0.82,5.493-2.053,8.028
			C2398.938,946.15,2398.097,943.084,2400.896,940.949z"/>
		<path fill-rule="evenodd" clip-rule="evenodd" fill="#74D5FC" d="M2377.86,1023.927c0.041,2.851-0.88,5.456-2.041,7.999
			C2375.765,1029.073,2375.776,1026.236,2377.86,1023.927z"/>
		<path fill-rule="evenodd" clip-rule="evenodd" fill="#74D5FC" d="M2430.745,1005.997c-1.145-2.217-1.745-4.586-1.989-7.058
			c0.683,0.328,1.367,0.655,2.051,0.983C2430.786,1001.947,2430.766,1003.971,2430.745,1005.997z"/>
		<path fill-rule="evenodd" clip-rule="evenodd" fill="#74D5FC" d="M2389.9,980.953c-0.404,2.427-0.724,4.877-2.031,7.044
			C2388.174,985.541,2386.596,982.542,2389.9,980.953z"/>
		<path fill-rule="evenodd" clip-rule="evenodd" fill="#74D5FC" d="M2384.878,998.936c-0.14,2.502-0.877,4.834-2.018,7.05
			C2382.798,1003.425,2382.447,1000.783,2384.878,998.936z"/>
		<path fill-rule="evenodd" clip-rule="evenodd" fill="#74D5FC" d="M2414.445,935.565c1.838,0.815,1.318,2.357,1.748,4.24
			C2414.293,938.501,2414.665,936.899,2414.445,935.565z"/>
		<path fill-rule="evenodd" clip-rule="evenodd" fill="#74D5FC" d="M2367.292,1027.127c0.454,0.624,1,1.166,0.915,1.297
			c-0.307,0.471-0.801,0.848-1.295,1.141c-0.072,0.042-0.822-0.676-0.756-0.855
			C2366.348,1028.196,2366.797,1027.778,2367.292,1027.127z"/>
		<path fill-rule="evenodd" clip-rule="evenodd" fill="#74D5FC" d="M2373.404,1030.24c-0.296,0.16-0.645,0.461-1.037,0.534
			c-0.486,0.091-0.991-0.164-0.748-0.743c0.146-0.346,0.623-0.673,1.011-0.768C2373.174,1029.13,2373.443,1029.528,2373.404,1030.24
			z"/>
		<path fill-rule="evenodd" clip-rule="evenodd" fill="#74D5FC" d="M2361.67,1009.296c-0.469,0.367-0.807,0.633-1.146,0.897
			c-0.191-0.339-0.584-0.721-0.523-1.006c0.071-0.335,0.537-0.586,0.831-0.873
			C2361.084,1008.608,2361.335,1008.903,2361.67,1009.296z"/>
	</g>
</g>
</svg>
